%TF.GenerationSoftware,KiCad,Pcbnew,9.0.6*%
%TF.CreationDate,2025-11-09T20:54:40-05:00*%
%TF.ProjectId,TTEFI,54544546-492e-46b6-9963-61645f706362,rev?*%
%TF.SameCoordinates,Original*%
%TF.FileFunction,Copper,L2,Bot*%
%TF.FilePolarity,Positive*%
%FSLAX46Y46*%
G04 Gerber Fmt 4.6, Leading zero omitted, Abs format (unit mm)*
G04 Created by KiCad (PCBNEW 9.0.6) date 2025-11-09 20:54:40*
%MOMM*%
%LPD*%
G01*
G04 APERTURE LIST*
%TA.AperFunction,ComponentPad*%
%ADD10C,0.600000*%
%TD*%
%TA.AperFunction,SMDPad,CuDef*%
%ADD11R,0.200000X3.700000*%
%TD*%
%TA.AperFunction,SMDPad,CuDef*%
%ADD12R,0.200000X0.400000*%
%TD*%
%TA.AperFunction,SMDPad,CuDef*%
%ADD13R,0.200000X1.600000*%
%TD*%
%TA.AperFunction,SMDPad,CuDef*%
%ADD14R,0.200000X9.700000*%
%TD*%
%TA.AperFunction,SMDPad,CuDef*%
%ADD15R,0.200000X2.300000*%
%TD*%
%TA.AperFunction,SMDPad,CuDef*%
%ADD16R,1.400000X0.200000*%
%TD*%
%TA.AperFunction,SMDPad,CuDef*%
%ADD17R,6.400000X0.200000*%
%TD*%
%TA.AperFunction,SMDPad,CuDef*%
%ADD18R,1.700000X0.200000*%
%TD*%
%TA.AperFunction,SMDPad,CuDef*%
%ADD19R,3.300000X0.200000*%
%TD*%
%TA.AperFunction,SMDPad,CuDef*%
%ADD20R,0.200000X7.000000*%
%TD*%
%TA.AperFunction,SMDPad,CuDef*%
%ADD21R,0.200000X3.300000*%
%TD*%
%TA.AperFunction,SMDPad,CuDef*%
%ADD22R,0.200000X6.300000*%
%TD*%
%TA.AperFunction,ComponentPad*%
%ADD23C,1.500000*%
%TD*%
%TA.AperFunction,SMDPad,CuDef*%
%ADD24O,0.200000X3.300000*%
%TD*%
%TA.AperFunction,SMDPad,CuDef*%
%ADD25O,0.200000X10.200000*%
%TD*%
%TA.AperFunction,SMDPad,CuDef*%
%ADD26O,0.200000X0.300000*%
%TD*%
%TA.AperFunction,SMDPad,CuDef*%
%ADD27O,17.000000X0.200000*%
%TD*%
%TA.AperFunction,SMDPad,CuDef*%
%ADD28O,15.400000X0.200000*%
%TD*%
%TA.AperFunction,SMDPad,CuDef*%
%ADD29O,0.200000X4.800000*%
%TD*%
%TA.AperFunction,SMDPad,CuDef*%
%ADD30O,0.200000X2.600000*%
%TD*%
%TA.AperFunction,SMDPad,CuDef*%
%ADD31O,0.200000X1.000000*%
%TD*%
%TA.AperFunction,SMDPad,CuDef*%
%ADD32O,0.200000X1.500000*%
%TD*%
%TA.AperFunction,ComponentPad*%
%ADD33C,0.599999*%
%TD*%
%TA.AperFunction,ViaPad*%
%ADD34C,0.600000*%
%TD*%
%TA.AperFunction,Conductor*%
%ADD35C,0.200000*%
%TD*%
G04 APERTURE END LIST*
D10*
%TO.P,M2,E1,V5A_SWITCHABLE*%
%TO.N,unconnected-(M2-V5A_SWITCHABLE-PadE1)*%
X142400000Y-118799990D03*
%TO.P,M2,E2,GNDA*%
%TO.N,unconnected-(M2-GNDA-PadE2)*%
X142400010Y-114499990D03*
%TO.P,M2,E3,I2C_SCL_(PB10)*%
%TO.N,unconnected-(M2-I2C_SCL_(PB10)-PadE3)*%
X142400010Y-113700000D03*
%TO.P,M2,E4,I2C_SDA_(PB11)*%
%TO.N,unconnected-(M2-I2C_SDA_(PB11)-PadE4)*%
X142400010Y-112899990D03*
%TO.P,M2,E5,IN_VIGN_(PA5)*%
%TO.N,Net-(M1-VIGN)*%
X142400010Y-112099990D03*
%TO.P,M2,E6,SPI2_CS_/_CAN2_RX_(PB12)*%
%TO.N,unconnected-(M2-SPI2_CS_{slash}_CAN2_RX_(PB12)-PadE6)*%
X142400010Y-111299990D03*
%TO.P,M2,E7,SPI2_SCK_/_CAN2_TX_(PB13)*%
%TO.N,unconnected-(M2-SPI2_SCK_{slash}_CAN2_TX_(PB13)-PadE7)*%
X142400010Y-110499990D03*
%TO.P,M2,E8,SPI2_MISO_(PB14)*%
%TO.N,unconnected-(M2-SPI2_MISO_(PB14)-PadE8)*%
X142400010Y-109699990D03*
%TO.P,M2,E9,SPI2_MOSI_(PB15)*%
%TO.N,unconnected-(M2-SPI2_MOSI_(PB15)-PadE9)*%
X142400010Y-108899990D03*
%TO.P,M2,E10,OUT_INJ8_(PD12)*%
%TO.N,unconnected-(M2-OUT_INJ8_(PD12)-PadE10)*%
X142400010Y-108099990D03*
%TO.P,M2,E11,OUT_INJ7_(PD15)*%
%TO.N,unconnected-(M2-OUT_INJ7_(PD15)-PadE11)*%
X142400010Y-107299990D03*
%TO.P,M2,E12,OUT_INJ6_(PA8)*%
%TO.N,unconnected-(M2-OUT_INJ6_(PA8)-PadE12)*%
X142400010Y-106499990D03*
%TO.P,M2,E13,OUT_INJ5_(PD2)*%
%TO.N,unconnected-(M2-OUT_INJ5_(PD2)-PadE13)*%
X142400010Y-105699990D03*
%TO.P,M2,E14,OUT_INJ4_(PD10)*%
%TO.N,unconnected-(M2-OUT_INJ4_(PD10)-PadE14)*%
X142400010Y-104899990D03*
%TO.P,M2,E15,OUT_INJ3_(PD11)*%
%TO.N,unconnected-(M2-OUT_INJ3_(PD11)-PadE15)*%
X142400010Y-104099990D03*
%TO.P,M2,E16,OUT_INJ2_(PA9)*%
%TO.N,unconnected-(M2-OUT_INJ2_(PA9)-PadE16)*%
X142400000Y-103300000D03*
%TO.P,M2,E17,OUT_INJ1_(PD3)*%
%TO.N,unconnected-(M2-OUT_INJ1_(PD3)-PadE17)*%
X142400010Y-102499990D03*
%TO.P,M2,E18,OUT_PWM1_(PD13)*%
%TO.N,unconnected-(M2-OUT_PWM1_(PD13)-PadE18)*%
X142400010Y-101099990D03*
%TO.P,M2,E19,OUT_PWM2_(PC6)*%
%TO.N,unconnected-(M2-OUT_PWM2_(PC6)-PadE19)*%
X142400010Y-100300000D03*
%TO.P,M2,E20,OUT_PWM3_(PC7)*%
%TO.N,unconnected-(M2-OUT_PWM3_(PC7)-PadE20)*%
X142400010Y-99500000D03*
%TO.P,M2,E21,OUT_PWM4_(PC8)*%
%TO.N,unconnected-(M2-OUT_PWM4_(PC8)-PadE21)*%
X142400010Y-98700000D03*
%TO.P,M2,E22,OUT_PWM5_(PC9)*%
%TO.N,unconnected-(M2-OUT_PWM5_(PC9)-PadE22)*%
X142400010Y-97900000D03*
%TO.P,M2,E23,OUT_PWM6_(PD14)*%
%TO.N,unconnected-(M2-OUT_PWM6_(PD14)-PadE23)*%
X142400010Y-97099990D03*
D11*
%TO.P,M2,G,GND*%
%TO.N,GND*%
X108800000Y-92250000D03*
D12*
X108800000Y-95299990D03*
D11*
X108800000Y-98350000D03*
D13*
X108800000Y-102799990D03*
D14*
X108800000Y-116449990D03*
D15*
X108800000Y-124449990D03*
D16*
X110600010Y-125500000D03*
D17*
X112700000Y-89700000D03*
D18*
X118750000Y-89700000D03*
D19*
X122250000Y-89700000D03*
D16*
X132000000Y-89700000D03*
D17*
X139500000Y-125500000D03*
D20*
X142600010Y-93099980D03*
D12*
X142600010Y-101800000D03*
D21*
X142600010Y-116650000D03*
D22*
X142600010Y-122450000D03*
D10*
%TO.P,M2,N1,VBUS*%
%TO.N,unconnected-(M2-VBUS-PadN1)*%
X142000010Y-89899990D03*
%TO.P,M2,N2,USBM_(PA11)*%
%TO.N,unconnected-(M2-USBM_(PA11)-PadN2)*%
X141200010Y-89899990D03*
%TO.P,M2,N3,USBP_(PA12)*%
%TO.N,unconnected-(M2-USBP_(PA12)-PadN3)*%
X140400010Y-89899990D03*
%TO.P,M2,N4,USBID_(PA10)*%
%TO.N,unconnected-(M2-USBID_(PA10)-PadN4)*%
X139600000Y-89899990D03*
%TO.P,M2,N5,SWDIO_(PA13)*%
%TO.N,unconnected-(M2-SWDIO_(PA13)-PadN5)*%
X138800010Y-89899990D03*
%TO.P,M2,N6,SWCLK_(PA14)*%
%TO.N,unconnected-(M2-SWCLK_(PA14)-PadN6)*%
X138000010Y-89899990D03*
%TO.P,M2,N7,nReset*%
%TO.N,unconnected-(M2-nReset-PadN7)*%
X137200010Y-89899990D03*
%TO.P,M2,N8,SWO_(PB3)*%
%TO.N,unconnected-(M2-SWO_(PB3)-PadN8)*%
X136400000Y-89899990D03*
%TO.P,M2,N9,SPI3_CS_(PA15)*%
%TO.N,unconnected-(M2-SPI3_CS_(PA15)-PadN9)*%
X135600010Y-89900000D03*
%TO.P,M2,N10,SPI3_SCK_(PC10)*%
%TO.N,unconnected-(M2-SPI3_SCK_(PC10)-PadN10)*%
X134800010Y-89900000D03*
%TO.P,M2,N11,SPI3_MISO_(PC11)*%
%TO.N,unconnected-(M2-SPI3_MISO_(PC11)-PadN11)*%
X134000010Y-89900000D03*
%TO.P,M2,N12,SPI3_MOSI_(PC12)*%
%TO.N,Net-(M1-PG_5VP)*%
X133200010Y-89900000D03*
%TO.P,M2,N13,UART2_TX_(PD5)*%
%TO.N,unconnected-(M2-UART2_TX_(PD5)-PadN13)*%
X130800000Y-89900000D03*
%TO.P,M2,N14,UART2_RX_(PD6)*%
%TO.N,unconnected-(M2-UART2_RX_(PD6)-PadN14)*%
X130000000Y-89900000D03*
%TO.P,M2,N14a,LED_GREEN*%
%TO.N,unconnected-(M2-LED_GREEN-PadN14a)*%
X129200010Y-89899990D03*
%TO.P,M2,N14b,LED_YELLOW*%
%TO.N,unconnected-(M2-LED_YELLOW-PadN14b)*%
X128400000Y-89899990D03*
%TO.P,M2,N15,V33_SWITCHABLE*%
%TO.N,unconnected-(M2-V33_SWITCHABLE-PadN15)*%
X127600000Y-89899990D03*
%TO.P,M2,N16,BOOT0*%
%TO.N,unconnected-(M2-BOOT0-PadN16)*%
X126800000Y-89899990D03*
%TO.P,M2,N17,VBAT*%
%TO.N,Net-(M1-VBAT)*%
X126000000Y-89899990D03*
%TO.P,M2,N18,UART8_RX_(PE0)*%
%TO.N,unconnected-(M2-UART8_RX_(PE0)-PadN18)*%
X125200000Y-89900000D03*
%TO.P,M2,N19,UART8_TX_(PE1)*%
%TO.N,unconnected-(M2-UART8_TX_(PE1)-PadN19)*%
X124400000Y-89900000D03*
%TO.P,M2,N20,OUT_PWR_EN_(PE10)*%
%TO.N,Net-(M1-EN_5VP)*%
X120100000Y-89900000D03*
%TO.P,M2,N21,V33*%
%TO.N,Net-(M3-V33)*%
X117400000Y-89900000D03*
%TO.P,M2,N22,VCC*%
%TO.N,+5V*%
X116400010Y-89900000D03*
%TO.P,M2,N23,V33*%
%TO.N,unconnected-(M2-V33-PadN23)*%
X109000000Y-89900000D03*
%TO.P,M2,S1,IN_D4_(PE15)*%
%TO.N,unconnected-(M2-IN_D4_(PE15)-PadS1)*%
X135800020Y-125300000D03*
%TO.P,M2,S2,IN_D3_(PE14)*%
%TO.N,unconnected-(M2-IN_D3_(PE14)-PadS2)*%
X134600010Y-125300000D03*
%TO.P,M2,S3,IN_D2_(PE13)*%
%TO.N,unconnected-(M2-IN_D2_(PE13)-PadS3)*%
X133400010Y-125300000D03*
%TO.P,M2,S4,IN_D1_(PE12)*%
%TO.N,unconnected-(M2-IN_D1_(PE12)-PadS4)*%
X132200010Y-125300000D03*
%TO.P,M2,S5,VREF2*%
%TO.N,unconnected-(M2-VREF2-PadS5)*%
X131000010Y-125300000D03*
%TO.P,M2,S6,IN_AUX4_(PC5)*%
%TO.N,unconnected-(M2-IN_AUX4_(PC5)-PadS6)*%
X129800010Y-125300000D03*
%TO.P,M2,S7,IN_AUX3_(PA7)*%
%TO.N,unconnected-(M2-IN_AUX3_(PA7)-PadS7)*%
X128600010Y-125300000D03*
%TO.P,M2,S8,IN_AUX2_(PC4/PE9)*%
%TO.N,unconnected-(M2-IN_AUX2_(PC4{slash}PE9)-PadS8)*%
X127400010Y-125300000D03*
%TO.P,M2,S9,IN_AUX1_(PB0)*%
%TO.N,unconnected-(M2-IN_AUX1_(PB0)-PadS9)*%
X126200010Y-125300000D03*
%TO.P,M2,S10,IN_O2S2_(PA1)*%
%TO.N,unconnected-(M2-IN_O2S2_(PA1)-PadS10)*%
X125000010Y-125300000D03*
%TO.P,M2,S11,IN_O2S_/_CAN_WAKEUP_(PA0)*%
%TO.N,unconnected-(M2-IN_O2S_{slash}_CAN_WAKEUP_(PA0)-PadS11)*%
X123800010Y-125300000D03*
%TO.P,M2,S12,IN_MAP2_(PC1)*%
%TO.N,unconnected-(M2-IN_MAP2_(PC1)-PadS12)*%
X122600010Y-125300000D03*
%TO.P,M2,S13,IN_MAP1_(PC0)*%
%TO.N,unconnected-(M2-IN_MAP1_(PC0)-PadS13)*%
X121400010Y-125300000D03*
%TO.P,M2,S14,IN_CRANK_(PB1)*%
%TO.N,unconnected-(M2-IN_CRANK_(PB1)-PadS14)*%
X120200010Y-125300000D03*
%TO.P,M2,S15,IN_KNOCK_(PA2)*%
%TO.N,unconnected-(M2-IN_KNOCK_(PA2)-PadS15)*%
X119000010Y-125300000D03*
%TO.P,M2,S16,IN_CAM_(PA6)*%
%TO.N,unconnected-(M2-IN_CAM_(PA6)-PadS16)*%
X117800010Y-125300000D03*
%TO.P,M2,S17,IN_VSS_(PE11)*%
%TO.N,unconnected-(M2-IN_VSS_(PE11)-PadS17)*%
X116600010Y-125300000D03*
%TO.P,M2,S18,IN_TPS_(PA4)*%
%TO.N,unconnected-(M2-IN_TPS_(PA4)-PadS18)*%
X115400000Y-125300000D03*
%TO.P,M2,S19,IN_PPS_(PA3)*%
%TO.N,unconnected-(M2-IN_PPS_(PA3)-PadS19)*%
X114200000Y-125300000D03*
%TO.P,M2,S20,IN_IAT_(PC3)*%
%TO.N,unconnected-(M2-IN_IAT_(PC3)-PadS20)*%
X113000000Y-125300000D03*
%TO.P,M2,S21,IN_CLT_(PC2)*%
%TO.N,unconnected-(M2-IN_CLT_(PC2)-PadS21)*%
X111800000Y-125300000D03*
%TO.P,M2,S22,VREF1*%
%TO.N,unconnected-(M2-VREF1-PadS22)*%
X109400000Y-125300000D03*
%TO.P,M2,W1,GNDA*%
%TO.N,GNDA*%
X109000000Y-122799990D03*
%TO.P,M2,W2,V5A_SWITCHABLE*%
%TO.N,unconnected-(M2-V5A_SWITCHABLE-PadW2)*%
X109000000Y-121799990D03*
%TO.P,M2,W3,IGN8_(PE6)*%
%TO.N,Net-(M2-IGN8_(PE6))*%
X109000000Y-111100000D03*
%TO.P,M2,W4,IGN7_(PB9)*%
%TO.N,Net-(M2-IGN7_(PB9))*%
X109000000Y-110099990D03*
%TO.P,M2,W5,IGN6_(PB8)*%
%TO.N,Net-(M2-IGN6_(PB8))*%
X109000000Y-109100000D03*
%TO.P,M2,W6,IGN5_(PE2)*%
%TO.N,Net-(M2-IGN5_(PE2))*%
X109000000Y-108100000D03*
%TO.P,M2,W7,IGN4_(PE3)*%
%TO.N,Net-(M2-IGN4_(PE3))*%
X109000000Y-107100000D03*
%TO.P,M2,W8,IGN3_(PE4)*%
%TO.N,Net-(M2-IGN3_(PE4))*%
X109000000Y-106100000D03*
%TO.P,M2,W9,IGN2_(PE5)*%
%TO.N,Net-(M2-IGN2_(PE5))*%
X109000000Y-105100000D03*
%TO.P,M2,W10,IGN1_(PC13)*%
%TO.N,Net-(M2-IGN1_(PC13))*%
X109000000Y-104100000D03*
%TO.P,M2,W11,CANH*%
%TO.N,unconnected-(M2-CANH-PadW11)*%
X109000000Y-101500000D03*
%TO.P,M2,W12,CANL*%
%TO.N,unconnected-(M2-CANL-PadW12)*%
X109000000Y-100700000D03*
%TO.P,M2,W13,V33_REF*%
%TO.N,unconnected-(M2-V33_REF-PadW13)*%
X109000000Y-95999990D03*
%TO.P,M2,W14,V5A_SWITCHABLE*%
%TO.N,unconnected-(M2-V5A_SWITCHABLE-PadW14)*%
X109000000Y-94600000D03*
%TD*%
D23*
%TO.P,M1,E1,VBAT*%
%TO.N,Net-(M1-VBAT)*%
X160199996Y-90799982D03*
%TO.P,M1,E2,V12*%
%TO.N,unconnected-(M1-V12-PadE2)*%
X160199996Y-97199979D03*
%TO.P,M1,E3,VIGN*%
%TO.N,Net-(M1-VIGN)*%
X160199996Y-99099982D03*
%TO.P,M1,E4,V5*%
%TO.N,+5V*%
X160199996Y-103399982D03*
D10*
%TO.P,M1,E5,EN_5VP*%
%TO.N,Net-(M1-EN_5VP)*%
X160649995Y-105799979D03*
%TO.P,M1,E6,PG_5VP*%
%TO.N,Net-(M1-PG_5VP)*%
X160649995Y-106799980D03*
D24*
%TO.P,M1,S1,GND*%
%TO.N,unconnected-(M1-GND-PadS1)*%
X144050000Y-94649982D03*
D25*
X144050000Y-103149980D03*
D26*
X144050000Y-110249982D03*
D27*
X152449998Y-110299982D03*
D28*
X153249999Y-89699982D03*
D23*
X160199996Y-109649982D03*
D26*
X160849997Y-89749982D03*
D29*
X160849997Y-93949980D03*
D30*
X160849997Y-101299982D03*
D31*
X160849997Y-104799979D03*
D32*
X160849997Y-108099980D03*
D23*
%TO.P,M1,V1,V12_PERM*%
%TO.N,+12V*%
X144699999Y-90349980D03*
%TO.P,M1,V2,IN_VIGN*%
%TO.N,unconnected-(M1-IN_VIGN-PadV2)*%
X144699999Y-92199979D03*
%TO.P,M1,V3,V12_RAW*%
%TO.N,+12V*%
X144699999Y-97149982D03*
%TO.P,M1,V4,5VP*%
%TO.N,+5VP*%
X144699999Y-109199980D03*
%TD*%
D33*
%TO.P,M3,V1,IGN8*%
%TO.N,Net-(M2-IGN8_(PE6))*%
X98490052Y-97900393D03*
%TO.P,M3,V2,IGN7*%
%TO.N,Net-(M2-IGN7_(PB9))*%
X100325062Y-98325401D03*
%TO.P,M3,V3,IGN6*%
%TO.N,Net-(M2-IGN6_(PB8))*%
X98275054Y-98875398D03*
%TO.P,M3,V4,IGN5*%
%TO.N,Net-(M2-IGN5_(PE2))*%
X98490049Y-99750357D03*
%TO.P,M3,V5,IGN4*%
%TO.N,Net-(M2-IGN4_(PE3))*%
X98565056Y-100600380D03*
%TO.P,M3,V6,IGN3*%
%TO.N,Net-(M2-IGN3_(PE4))*%
X100325062Y-100925396D03*
%TO.P,M3,V7,IGN2*%
%TO.N,Net-(M2-IGN2_(PE5))*%
X99015062Y-102225363D03*
%TO.P,M3,V8,IGN1*%
%TO.N,Net-(M2-IGN1_(PC13))*%
X100325062Y-102875380D03*
%TO.P,M3,V9,VCC*%
%TO.N,+5V*%
X94400047Y-95700377D03*
%TO.P,M3,V10,V33*%
%TO.N,Net-(M3-V33)*%
X98475053Y-96000379D03*
%TD*%
D34*
%TO.N,GND*%
X113500000Y-89000000D03*
X106500000Y-95500000D03*
X107500000Y-98500000D03*
X108000000Y-93500000D03*
X105000000Y-92500000D03*
X107000000Y-90500000D03*
X108000000Y-88000000D03*
X118500000Y-88500000D03*
X89500000Y-86500000D03*
X98000000Y-86500000D03*
X101500000Y-86500000D03*
X105000000Y-86500000D03*
%TD*%
D35*
%TO.N,Net-(M1-VIGN)*%
X142599010Y-111900990D02*
X142400010Y-112099990D01*
X142648953Y-111900990D02*
X142599010Y-111900990D01*
X143001010Y-111548933D02*
X142648953Y-111900990D01*
X143001010Y-111500000D02*
X143001010Y-111548933D01*
X160000000Y-111500000D02*
X143001010Y-111500000D01*
X161182198Y-111101982D02*
X160398018Y-111101982D01*
X160398018Y-111101982D02*
X160000000Y-111500000D01*
X162000000Y-100000000D02*
X162000000Y-109500000D01*
X161651998Y-109848002D02*
X161651998Y-110632182D01*
X161651998Y-110632182D02*
X161182198Y-111101982D01*
X161099982Y-99099982D02*
X162000000Y-100000000D01*
X160199996Y-99099982D02*
X161099982Y-99099982D01*
X162000000Y-109500000D02*
X161651998Y-109848002D01*
%TO.N,Net-(M2-IGN7_(PB9))*%
X101500000Y-107000000D02*
X104599990Y-110099990D01*
X95000000Y-107000000D02*
X101500000Y-107000000D01*
X95700606Y-97299394D02*
X95000000Y-98000000D01*
X100325062Y-98325062D02*
X99299394Y-97299394D01*
X99299394Y-97299394D02*
X95700606Y-97299394D01*
X104599990Y-110099990D02*
X109000000Y-110099990D01*
X100325062Y-98325401D02*
X100325062Y-98325062D01*
X95000000Y-98000000D02*
X95000000Y-107000000D01*
%TO.N,Net-(M2-IGN6_(PB8))*%
X106100000Y-109100000D02*
X109000000Y-109100000D01*
X103500000Y-106500000D02*
X106100000Y-109100000D01*
X96500000Y-106500000D02*
X103500000Y-106500000D01*
X96500000Y-100650452D02*
X96500000Y-106500000D01*
X98275054Y-98875398D02*
X96500000Y-100650452D01*
%TO.N,Net-(M2-IGN5_(PE2))*%
X106900000Y-106000000D02*
X109000000Y-108100000D01*
X97500000Y-106000000D02*
X106900000Y-106000000D01*
X97500000Y-100740406D02*
X97500000Y-106000000D01*
X98490049Y-99750357D02*
X97500000Y-100740406D01*
%TO.N,Net-(M2-IGN4_(PE3))*%
X106400000Y-104500000D02*
X109000000Y-107100000D01*
X98000000Y-104500000D02*
X106400000Y-104500000D01*
X98000000Y-101165436D02*
X98000000Y-104500000D01*
X98565056Y-100600380D02*
X98000000Y-101165436D01*
%TO.N,Net-(M2-IGN3_(PE4))*%
X108000000Y-105100000D02*
X109000000Y-106100000D01*
X100899666Y-101500000D02*
X108000000Y-101500000D01*
X100325062Y-100925396D02*
X100899666Y-101500000D01*
X108000000Y-101500000D02*
X108000000Y-105100000D01*
%TO.N,Net-(M1-VBAT)*%
X161260656Y-90799982D02*
X160199996Y-90799982D01*
X126975726Y-88500000D02*
X162000000Y-88500000D01*
X126000000Y-89475726D02*
X126975726Y-88500000D01*
X162000000Y-88500000D02*
X162000000Y-90060638D01*
X126000000Y-89899990D02*
X126000000Y-89475726D01*
X162000000Y-90060638D02*
X161260656Y-90799982D01*
%TO.N,Net-(M1-PG_5VP)*%
X133200010Y-89850057D02*
X133200010Y-89900000D01*
X133751087Y-89298980D02*
X133200010Y-89850057D01*
X143001010Y-89298980D02*
X133751087Y-89298980D01*
X143001010Y-109818094D02*
X143001010Y-89298980D01*
X143883898Y-110700982D02*
X143001010Y-109818094D01*
X161016098Y-110700982D02*
X143883898Y-110700982D01*
X161250998Y-110466082D02*
X161016098Y-110700982D01*
X161250998Y-107283881D02*
X161250998Y-110466082D01*
X160767097Y-106799980D02*
X161250998Y-107283881D01*
X160649995Y-106799980D02*
X160767097Y-106799980D01*
%TD*%
%TA.AperFunction,Conductor*%
%TO.N,GND*%
G36*
X164942539Y-85020185D02*
G01*
X164988294Y-85072989D01*
X164999500Y-85124500D01*
X164999500Y-125376795D01*
X164979815Y-125443834D01*
X164927011Y-125489589D01*
X164876305Y-125500792D01*
X142724805Y-125644636D01*
X142657639Y-125625388D01*
X142611543Y-125572882D01*
X142600000Y-125520639D01*
X142600000Y-119666456D01*
X142619685Y-119599417D01*
X142672489Y-119553662D01*
X142676548Y-119551895D01*
X142779172Y-119509387D01*
X142779172Y-119509386D01*
X142779179Y-119509384D01*
X142910289Y-119421779D01*
X143021789Y-119310279D01*
X143109394Y-119179169D01*
X143169737Y-119033487D01*
X143200500Y-118878832D01*
X143200500Y-118721148D01*
X143200500Y-118721145D01*
X143200499Y-118721143D01*
X143169738Y-118566500D01*
X143169737Y-118566493D01*
X143169735Y-118566488D01*
X143109397Y-118420817D01*
X143109390Y-118420804D01*
X143021789Y-118289701D01*
X143021786Y-118289697D01*
X142910292Y-118178203D01*
X142910288Y-118178200D01*
X142779185Y-118090599D01*
X142779175Y-118090594D01*
X142676547Y-118048084D01*
X142622144Y-118004243D01*
X142600079Y-117937949D01*
X142600000Y-117933523D01*
X142600000Y-115366460D01*
X142619685Y-115299421D01*
X142672489Y-115253666D01*
X142676548Y-115251899D01*
X142779182Y-115209387D01*
X142779182Y-115209386D01*
X142779189Y-115209384D01*
X142910299Y-115121779D01*
X143021799Y-115010279D01*
X143109404Y-114879169D01*
X143169747Y-114733487D01*
X143200510Y-114578832D01*
X143200510Y-114421148D01*
X143200510Y-114421145D01*
X143200509Y-114421143D01*
X143169748Y-114266500D01*
X143169747Y-114266493D01*
X143120436Y-114147446D01*
X143112968Y-114077978D01*
X143120437Y-114052542D01*
X143169747Y-113933497D01*
X143200510Y-113778842D01*
X143200510Y-113621158D01*
X143200510Y-113621155D01*
X143200509Y-113621153D01*
X143169748Y-113466510D01*
X143169747Y-113466503D01*
X143120433Y-113347447D01*
X143112964Y-113277978D01*
X143120433Y-113252543D01*
X143169745Y-113133491D01*
X143169747Y-113133487D01*
X143200510Y-112978832D01*
X143200510Y-112821148D01*
X143200510Y-112821145D01*
X143200509Y-112821143D01*
X143169748Y-112666500D01*
X143169747Y-112666493D01*
X143169745Y-112666488D01*
X143120435Y-112547441D01*
X143117695Y-112521958D01*
X143111027Y-112497208D01*
X143113679Y-112484611D01*
X143112966Y-112477972D01*
X143116832Y-112462395D01*
X143118421Y-112457397D01*
X143169747Y-112333487D01*
X143189600Y-112233674D01*
X143191698Y-112227082D01*
X143207518Y-112203636D01*
X143220628Y-112178575D01*
X143222095Y-112177081D01*
X143262361Y-112136816D01*
X143323685Y-112103333D01*
X143350040Y-112100500D01*
X159913331Y-112100500D01*
X159913347Y-112100501D01*
X159920943Y-112100501D01*
X160079054Y-112100501D01*
X160079057Y-112100501D01*
X160231785Y-112059577D01*
X160283961Y-112029453D01*
X160368716Y-111980520D01*
X160480520Y-111868716D01*
X160480520Y-111868714D01*
X160490721Y-111858514D01*
X160490725Y-111858508D01*
X160610435Y-111738800D01*
X160671759Y-111705316D01*
X160698116Y-111702482D01*
X161095529Y-111702482D01*
X161095545Y-111702483D01*
X161103141Y-111702483D01*
X161261252Y-111702483D01*
X161261255Y-111702483D01*
X161413983Y-111661559D01*
X161472126Y-111627990D01*
X161550914Y-111582502D01*
X161662718Y-111470698D01*
X161662719Y-111470696D01*
X162132518Y-111000898D01*
X162211575Y-110863966D01*
X162252499Y-110711239D01*
X162252499Y-110553124D01*
X162252499Y-110545529D01*
X162252498Y-110545511D01*
X162252498Y-110148099D01*
X162261141Y-110118662D01*
X162267665Y-110088673D01*
X162271420Y-110083655D01*
X162272183Y-110081060D01*
X162288813Y-110060421D01*
X162358505Y-109990728D01*
X162358510Y-109990725D01*
X162368714Y-109980520D01*
X162368716Y-109980520D01*
X162480520Y-109868716D01*
X162540943Y-109764059D01*
X162559577Y-109731785D01*
X162600500Y-109579057D01*
X162600500Y-109420943D01*
X162600500Y-100089060D01*
X162600501Y-100089047D01*
X162600501Y-99920944D01*
X162577079Y-99833533D01*
X162559577Y-99768216D01*
X162559573Y-99768209D01*
X162480524Y-99631290D01*
X162480518Y-99631282D01*
X161587572Y-98738337D01*
X161587570Y-98738334D01*
X161468699Y-98619463D01*
X161468691Y-98619457D01*
X161378305Y-98567273D01*
X161378301Y-98567271D01*
X161378300Y-98567271D01*
X161344560Y-98547791D01*
X161296346Y-98497224D01*
X161296077Y-98496699D01*
X161295833Y-98496220D01*
X161269520Y-98444577D01*
X161269518Y-98444574D01*
X161269517Y-98444572D01*
X161235931Y-98398346D01*
X161153824Y-98285336D01*
X161106149Y-98237661D01*
X161072664Y-98176338D01*
X161077648Y-98106646D01*
X161106147Y-98062301D01*
X161153824Y-98014625D01*
X161269520Y-97855384D01*
X161358880Y-97680004D01*
X161419705Y-97492805D01*
X161420005Y-97490912D01*
X161450496Y-97298401D01*
X161450496Y-97101556D01*
X161419705Y-96907152D01*
X161374736Y-96768753D01*
X161358880Y-96719954D01*
X161348741Y-96700055D01*
X161335845Y-96631391D01*
X161351837Y-96581767D01*
X161409574Y-96481764D01*
X161450497Y-96329037D01*
X161450497Y-91570923D01*
X161431695Y-91500752D01*
X161432357Y-91472912D01*
X161429711Y-91445195D01*
X161433177Y-91438469D01*
X161433358Y-91430904D01*
X161448966Y-91407842D01*
X161461726Y-91383092D01*
X161470262Y-91376378D01*
X161472521Y-91373042D01*
X161489469Y-91361274D01*
X161492438Y-91359559D01*
X161492441Y-91359559D01*
X161572482Y-91313347D01*
X161572484Y-91313345D01*
X161572487Y-91313345D01*
X161629365Y-91280506D01*
X161629364Y-91280506D01*
X161629372Y-91280502D01*
X161741176Y-91168698D01*
X161741176Y-91168696D01*
X161751380Y-91158493D01*
X161751384Y-91158488D01*
X162358506Y-90551366D01*
X162358511Y-90551362D01*
X162368714Y-90541158D01*
X162368716Y-90541158D01*
X162480520Y-90429354D01*
X162554924Y-90300482D01*
X162559577Y-90292423D01*
X162600500Y-90139696D01*
X162600500Y-89981581D01*
X162600500Y-88420943D01*
X162559577Y-88268216D01*
X162559573Y-88268209D01*
X162480524Y-88131290D01*
X162480518Y-88131282D01*
X162368717Y-88019481D01*
X162368709Y-88019475D01*
X162231790Y-87940426D01*
X162231786Y-87940424D01*
X162231784Y-87940423D01*
X162079057Y-87899500D01*
X162079056Y-87899500D01*
X127062395Y-87899500D01*
X127062379Y-87899499D01*
X127054783Y-87899499D01*
X126896669Y-87899499D01*
X126789313Y-87928265D01*
X126743936Y-87940424D01*
X126743935Y-87940425D01*
X126693822Y-87969359D01*
X126693821Y-87969360D01*
X126650415Y-87994420D01*
X126607011Y-88019479D01*
X126607008Y-88019481D01*
X125631286Y-88995203D01*
X125631286Y-88995204D01*
X125631284Y-88995206D01*
X125532686Y-89093804D01*
X125471362Y-89127288D01*
X125420814Y-89127739D01*
X125278846Y-89099500D01*
X125278842Y-89099500D01*
X125121158Y-89099500D01*
X125121155Y-89099500D01*
X124966510Y-89130261D01*
X124966498Y-89130264D01*
X124847452Y-89179574D01*
X124777982Y-89187043D01*
X124752548Y-89179574D01*
X124633501Y-89130264D01*
X124633489Y-89130261D01*
X124478845Y-89099500D01*
X124478842Y-89099500D01*
X124321158Y-89099500D01*
X124321155Y-89099500D01*
X124166510Y-89130261D01*
X124166498Y-89130264D01*
X124020827Y-89190602D01*
X124020814Y-89190609D01*
X123889711Y-89278210D01*
X123889707Y-89278213D01*
X123778213Y-89389707D01*
X123778210Y-89389711D01*
X123690609Y-89520814D01*
X123690602Y-89520827D01*
X123648099Y-89623442D01*
X123604259Y-89677846D01*
X123537964Y-89699911D01*
X123533538Y-89699990D01*
X120966462Y-89699990D01*
X120899423Y-89680305D01*
X120853668Y-89627501D01*
X120851901Y-89623442D01*
X120809397Y-89520827D01*
X120809390Y-89520814D01*
X120721789Y-89389711D01*
X120721786Y-89389707D01*
X120610292Y-89278213D01*
X120610288Y-89278210D01*
X120479185Y-89190609D01*
X120479172Y-89190602D01*
X120333501Y-89130264D01*
X120333489Y-89130261D01*
X120178845Y-89099500D01*
X120178842Y-89099500D01*
X120021158Y-89099500D01*
X120021155Y-89099500D01*
X119866510Y-89130261D01*
X119866498Y-89130264D01*
X119720827Y-89190602D01*
X119720814Y-89190609D01*
X119589711Y-89278210D01*
X119589707Y-89278213D01*
X119478213Y-89389707D01*
X119478210Y-89389711D01*
X119390609Y-89520814D01*
X119390602Y-89520827D01*
X119348099Y-89623442D01*
X119304259Y-89677846D01*
X119237964Y-89699911D01*
X119233538Y-89699990D01*
X118266462Y-89699990D01*
X118199423Y-89680305D01*
X118153668Y-89627501D01*
X118151901Y-89623442D01*
X118109397Y-89520827D01*
X118109390Y-89520814D01*
X118021789Y-89389711D01*
X118021786Y-89389707D01*
X117910292Y-89278213D01*
X117910288Y-89278210D01*
X117779185Y-89190609D01*
X117779172Y-89190602D01*
X117633501Y-89130264D01*
X117633489Y-89130261D01*
X117478845Y-89099500D01*
X117478842Y-89099500D01*
X117321158Y-89099500D01*
X117321155Y-89099500D01*
X117166510Y-89130261D01*
X117166498Y-89130264D01*
X117020828Y-89190602D01*
X117020810Y-89190612D01*
X116968895Y-89225301D01*
X116902218Y-89246179D01*
X116834838Y-89227694D01*
X116831115Y-89225301D01*
X116779199Y-89190612D01*
X116779192Y-89190608D01*
X116779189Y-89190606D01*
X116779185Y-89190604D01*
X116779181Y-89190602D01*
X116633511Y-89130264D01*
X116633499Y-89130261D01*
X116478855Y-89099500D01*
X116478852Y-89099500D01*
X116321168Y-89099500D01*
X116321165Y-89099500D01*
X116166520Y-89130261D01*
X116166508Y-89130264D01*
X116020837Y-89190602D01*
X116020824Y-89190609D01*
X115889721Y-89278210D01*
X115889717Y-89278213D01*
X115778223Y-89389707D01*
X115778220Y-89389711D01*
X115690619Y-89520814D01*
X115690612Y-89520827D01*
X115648109Y-89623442D01*
X115604269Y-89677846D01*
X115537974Y-89699911D01*
X115533548Y-89699990D01*
X109866462Y-89699990D01*
X109799423Y-89680305D01*
X109753668Y-89627501D01*
X109751901Y-89623442D01*
X109709397Y-89520827D01*
X109709390Y-89520814D01*
X109621789Y-89389711D01*
X109621786Y-89389707D01*
X109510292Y-89278213D01*
X109510288Y-89278210D01*
X109379185Y-89190609D01*
X109379172Y-89190602D01*
X109233501Y-89130264D01*
X109233489Y-89130261D01*
X109078845Y-89099500D01*
X109078842Y-89099500D01*
X108921158Y-89099500D01*
X108921155Y-89099500D01*
X108766510Y-89130261D01*
X108766498Y-89130264D01*
X108620827Y-89190602D01*
X108620814Y-89190609D01*
X108489711Y-89278210D01*
X108489707Y-89278213D01*
X108378213Y-89389707D01*
X108378210Y-89389711D01*
X108290609Y-89520814D01*
X108290602Y-89520827D01*
X108230264Y-89666498D01*
X108230261Y-89666510D01*
X108199500Y-89821153D01*
X108199500Y-89978846D01*
X108230261Y-90133489D01*
X108230264Y-90133501D01*
X108290602Y-90279172D01*
X108290609Y-90279185D01*
X108378210Y-90410288D01*
X108378213Y-90410292D01*
X108489707Y-90521786D01*
X108489711Y-90521789D01*
X108620814Y-90609390D01*
X108620827Y-90609397D01*
X108723452Y-90651905D01*
X108777856Y-90695745D01*
X108799921Y-90762039D01*
X108800000Y-90766466D01*
X108800000Y-93733533D01*
X108780315Y-93800572D01*
X108727511Y-93846327D01*
X108723453Y-93848094D01*
X108620824Y-93890604D01*
X108620814Y-93890609D01*
X108489711Y-93978210D01*
X108489707Y-93978213D01*
X108378213Y-94089707D01*
X108378210Y-94089711D01*
X108290609Y-94220814D01*
X108290602Y-94220827D01*
X108230264Y-94366498D01*
X108230261Y-94366510D01*
X108199500Y-94521153D01*
X108199500Y-94678846D01*
X108230261Y-94833489D01*
X108230264Y-94833501D01*
X108290602Y-94979172D01*
X108290609Y-94979185D01*
X108378210Y-95110288D01*
X108378213Y-95110292D01*
X108480235Y-95212314D01*
X108513720Y-95273637D01*
X108508736Y-95343329D01*
X108480235Y-95387676D01*
X108378213Y-95489697D01*
X108378210Y-95489701D01*
X108290609Y-95620804D01*
X108290602Y-95620817D01*
X108230264Y-95766488D01*
X108230261Y-95766500D01*
X108199500Y-95921143D01*
X108199500Y-96078836D01*
X108230261Y-96233479D01*
X108230264Y-96233491D01*
X108290602Y-96379162D01*
X108290609Y-96379175D01*
X108378210Y-96510278D01*
X108378213Y-96510282D01*
X108489707Y-96621776D01*
X108489711Y-96621779D01*
X108620814Y-96709380D01*
X108620827Y-96709387D01*
X108723452Y-96751895D01*
X108777856Y-96795735D01*
X108799921Y-96862029D01*
X108800000Y-96866456D01*
X108800000Y-99833533D01*
X108780315Y-99900572D01*
X108727511Y-99946327D01*
X108723453Y-99948094D01*
X108620824Y-99990604D01*
X108620814Y-99990609D01*
X108489711Y-100078210D01*
X108489707Y-100078213D01*
X108378213Y-100189707D01*
X108378210Y-100189711D01*
X108290609Y-100320814D01*
X108290602Y-100320827D01*
X108230264Y-100466498D01*
X108230261Y-100466510D01*
X108199500Y-100621153D01*
X108199500Y-100775500D01*
X108179815Y-100842539D01*
X108127011Y-100888294D01*
X108075500Y-100899500D01*
X101237857Y-100899500D01*
X101170818Y-100879815D01*
X101125063Y-100827011D01*
X101116240Y-100799692D01*
X101094799Y-100691904D01*
X101094798Y-100691903D01*
X101094798Y-100691899D01*
X101070525Y-100633298D01*
X101034458Y-100546224D01*
X101034451Y-100546211D01*
X100946850Y-100415108D01*
X100946847Y-100415104D01*
X100835353Y-100303610D01*
X100835349Y-100303607D01*
X100704246Y-100216006D01*
X100704233Y-100215999D01*
X100558563Y-100155661D01*
X100558551Y-100155658D01*
X100403907Y-100124897D01*
X100403904Y-100124897D01*
X100246220Y-100124897D01*
X100246217Y-100124897D01*
X100091572Y-100155658D01*
X100091560Y-100155661D01*
X99945890Y-100215999D01*
X99945877Y-100216006D01*
X99814774Y-100303607D01*
X99814770Y-100303610D01*
X99703276Y-100415104D01*
X99703273Y-100415108D01*
X99615672Y-100546211D01*
X99615667Y-100546220D01*
X99604116Y-100574109D01*
X99560275Y-100628512D01*
X99493981Y-100650577D01*
X99426282Y-100633298D01*
X99378671Y-100582161D01*
X99365555Y-100526656D01*
X99365555Y-100521535D01*
X99365554Y-100521533D01*
X99354607Y-100466498D01*
X99334792Y-100366883D01*
X99315710Y-100320814D01*
X99274451Y-100221206D01*
X99274450Y-100221204D01*
X99253404Y-100189707D01*
X99241529Y-100171934D01*
X99220651Y-100105256D01*
X99230069Y-100055593D01*
X99259785Y-99983854D01*
X99290548Y-99829199D01*
X99290548Y-99671515D01*
X99290548Y-99671512D01*
X99290547Y-99671510D01*
X99282547Y-99631290D01*
X99259785Y-99516860D01*
X99259783Y-99516855D01*
X99199445Y-99371185D01*
X99199438Y-99371172D01*
X99111837Y-99240069D01*
X99111834Y-99240065D01*
X99081018Y-99209250D01*
X99047532Y-99147928D01*
X99047081Y-99097376D01*
X99047527Y-99095137D01*
X99075553Y-98954240D01*
X99075553Y-98796556D01*
X99075553Y-98796553D01*
X99075552Y-98796551D01*
X99062566Y-98731266D01*
X99044790Y-98641901D01*
X99035495Y-98619462D01*
X99028413Y-98602364D01*
X99020943Y-98532895D01*
X99052217Y-98470415D01*
X99055264Y-98467256D01*
X99111840Y-98410681D01*
X99199445Y-98279571D01*
X99199450Y-98279556D01*
X99201047Y-98276572D01*
X99202306Y-98275289D01*
X99202830Y-98274506D01*
X99202978Y-98274605D01*
X99219943Y-98257330D01*
X99236103Y-98235744D01*
X99244054Y-98232778D01*
X99250003Y-98226721D01*
X99276302Y-98220750D01*
X99301567Y-98211327D01*
X99309861Y-98213131D01*
X99318139Y-98211252D01*
X99343490Y-98220446D01*
X99369840Y-98226179D01*
X99379752Y-98233599D01*
X99383821Y-98235075D01*
X99398094Y-98247330D01*
X99490404Y-98339640D01*
X99523889Y-98400963D01*
X99524340Y-98403129D01*
X99555324Y-98558892D01*
X99555327Y-98558902D01*
X99615665Y-98704572D01*
X99615672Y-98704585D01*
X99703273Y-98835688D01*
X99703276Y-98835692D01*
X99814770Y-98947186D01*
X99814774Y-98947189D01*
X99945877Y-99034790D01*
X99945890Y-99034797D01*
X100091560Y-99095135D01*
X100091565Y-99095137D01*
X100246215Y-99125899D01*
X100246218Y-99125900D01*
X100246220Y-99125900D01*
X100403906Y-99125900D01*
X100403907Y-99125899D01*
X100558559Y-99095137D01*
X100704240Y-99034794D01*
X100835350Y-98947189D01*
X100946850Y-98835689D01*
X101034455Y-98704579D01*
X101094798Y-98558898D01*
X101125561Y-98404243D01*
X101125561Y-98246559D01*
X101125561Y-98246556D01*
X101125560Y-98246554D01*
X101118538Y-98211252D01*
X101094798Y-98091904D01*
X101089477Y-98079057D01*
X101034458Y-97946229D01*
X101034451Y-97946216D01*
X100946850Y-97815113D01*
X100946847Y-97815109D01*
X100835353Y-97703615D01*
X100835349Y-97703612D01*
X100704246Y-97616011D01*
X100704233Y-97616004D01*
X100558563Y-97555666D01*
X100558553Y-97555663D01*
X100403637Y-97524848D01*
X100341726Y-97492463D01*
X100340148Y-97490912D01*
X99786984Y-96937749D01*
X99786982Y-96937746D01*
X99668111Y-96818875D01*
X99668110Y-96818874D01*
X99581298Y-96768754D01*
X99581298Y-96768753D01*
X99581294Y-96768752D01*
X99531179Y-96739817D01*
X99378451Y-96698893D01*
X99220337Y-96698893D01*
X99212741Y-96698893D01*
X99212725Y-96698894D01*
X99203060Y-96698894D01*
X99136021Y-96679209D01*
X99090266Y-96626405D01*
X99080322Y-96557247D01*
X99099958Y-96506003D01*
X99184442Y-96379563D01*
X99184442Y-96379562D01*
X99184446Y-96379557D01*
X99244789Y-96233876D01*
X99275552Y-96079221D01*
X99275552Y-95921537D01*
X99275552Y-95921534D01*
X99275551Y-95921532D01*
X99275474Y-95921143D01*
X99244789Y-95766882D01*
X99244626Y-95766488D01*
X99184449Y-95621207D01*
X99184442Y-95621194D01*
X99096841Y-95490091D01*
X99096838Y-95490087D01*
X98985344Y-95378593D01*
X98985340Y-95378590D01*
X98854237Y-95290989D01*
X98854224Y-95290982D01*
X98708554Y-95230644D01*
X98708542Y-95230641D01*
X98553898Y-95199880D01*
X98553895Y-95199880D01*
X98396211Y-95199880D01*
X98396208Y-95199880D01*
X98241563Y-95230641D01*
X98241551Y-95230644D01*
X98095881Y-95290982D01*
X98095868Y-95290989D01*
X97964765Y-95378590D01*
X97964761Y-95378593D01*
X97853267Y-95490087D01*
X97853264Y-95490091D01*
X97765663Y-95621194D01*
X97765656Y-95621207D01*
X97705318Y-95766877D01*
X97705315Y-95766889D01*
X97674554Y-95921532D01*
X97674554Y-96079225D01*
X97705315Y-96233868D01*
X97705318Y-96233880D01*
X97765656Y-96379550D01*
X97765663Y-96379563D01*
X97850148Y-96506003D01*
X97871026Y-96572681D01*
X97852541Y-96640061D01*
X97800563Y-96686751D01*
X97747046Y-96698894D01*
X95787276Y-96698894D01*
X95787260Y-96698893D01*
X95779664Y-96698893D01*
X95621549Y-96698893D01*
X95545185Y-96719355D01*
X95468820Y-96739817D01*
X95468815Y-96739820D01*
X95331896Y-96818869D01*
X95331888Y-96818875D01*
X94519479Y-97631284D01*
X94502188Y-97661233D01*
X94494880Y-97673893D01*
X94440423Y-97768215D01*
X94399499Y-97920943D01*
X94399499Y-97920945D01*
X94399499Y-98089046D01*
X94399500Y-98089059D01*
X94399500Y-107079057D01*
X94414978Y-107136819D01*
X94440423Y-107231783D01*
X94440426Y-107231790D01*
X94519475Y-107368709D01*
X94519479Y-107368714D01*
X94519480Y-107368716D01*
X94631284Y-107480520D01*
X94631286Y-107480521D01*
X94631290Y-107480524D01*
X94768209Y-107559573D01*
X94768216Y-107559577D01*
X94920943Y-107600500D01*
X95079057Y-107600500D01*
X101199903Y-107600500D01*
X101266942Y-107620185D01*
X101287584Y-107636819D01*
X104115129Y-110464364D01*
X104115139Y-110464375D01*
X104119469Y-110468705D01*
X104119470Y-110468706D01*
X104231274Y-110580510D01*
X104303008Y-110621925D01*
X104368205Y-110659567D01*
X104520933Y-110700491D01*
X104520936Y-110700491D01*
X104686643Y-110700491D01*
X104686659Y-110700490D01*
X108113449Y-110700490D01*
X108180488Y-110720175D01*
X108226243Y-110772979D01*
X108236187Y-110842137D01*
X108231167Y-110860414D01*
X108232031Y-110860676D01*
X108230261Y-110866510D01*
X108199500Y-111021153D01*
X108199500Y-111178846D01*
X108230261Y-111333489D01*
X108230264Y-111333501D01*
X108290602Y-111479172D01*
X108290609Y-111479185D01*
X108378210Y-111610288D01*
X108378213Y-111610292D01*
X108489707Y-111721786D01*
X108489711Y-111721789D01*
X108620814Y-111809390D01*
X108620827Y-111809397D01*
X108723452Y-111851905D01*
X108777856Y-111895745D01*
X108799921Y-111962039D01*
X108800000Y-111966466D01*
X108800000Y-120933523D01*
X108780315Y-121000562D01*
X108727511Y-121046317D01*
X108723453Y-121048084D01*
X108620824Y-121090594D01*
X108620814Y-121090599D01*
X108489711Y-121178200D01*
X108489707Y-121178203D01*
X108378213Y-121289697D01*
X108378210Y-121289701D01*
X108290609Y-121420804D01*
X108290602Y-121420817D01*
X108230264Y-121566488D01*
X108230261Y-121566500D01*
X108199500Y-121721143D01*
X108199500Y-121878836D01*
X108230261Y-122033479D01*
X108230264Y-122033491D01*
X108290602Y-122179162D01*
X108290609Y-122179175D01*
X108325304Y-122231099D01*
X108346182Y-122297776D01*
X108327698Y-122365157D01*
X108325304Y-122368881D01*
X108290609Y-122420804D01*
X108290602Y-122420817D01*
X108230264Y-122566488D01*
X108230261Y-122566500D01*
X108199500Y-122721143D01*
X108199500Y-122878836D01*
X108230261Y-123033479D01*
X108230264Y-123033491D01*
X108290602Y-123179162D01*
X108290609Y-123179175D01*
X108378210Y-123310278D01*
X108378213Y-123310282D01*
X108489707Y-123421776D01*
X108489711Y-123421779D01*
X108620814Y-123509380D01*
X108620827Y-123509387D01*
X108723452Y-123551895D01*
X108777856Y-123595735D01*
X108799921Y-123662029D01*
X108800000Y-123666456D01*
X108800000Y-124719486D01*
X108780315Y-124786525D01*
X108779102Y-124788377D01*
X108690609Y-124920814D01*
X108690602Y-124920827D01*
X108630264Y-125066498D01*
X108630261Y-125066510D01*
X108599500Y-125221153D01*
X108599500Y-125378846D01*
X108630261Y-125533489D01*
X108630264Y-125533501D01*
X108690604Y-125679175D01*
X108693119Y-125683881D01*
X108707360Y-125752284D01*
X108682359Y-125817527D01*
X108626054Y-125858897D01*
X108584565Y-125866330D01*
X88125305Y-125999186D01*
X88058139Y-125979938D01*
X88012043Y-125927432D01*
X88000500Y-125875189D01*
X88000500Y-95621530D01*
X93599548Y-95621530D01*
X93599548Y-95779223D01*
X93630309Y-95933866D01*
X93630312Y-95933878D01*
X93690650Y-96079548D01*
X93690657Y-96079561D01*
X93778258Y-96210664D01*
X93778261Y-96210668D01*
X93889755Y-96322162D01*
X93889759Y-96322165D01*
X94020862Y-96409766D01*
X94020875Y-96409773D01*
X94166545Y-96470111D01*
X94166550Y-96470113D01*
X94321200Y-96500875D01*
X94321203Y-96500876D01*
X94321205Y-96500876D01*
X94478891Y-96500876D01*
X94478892Y-96500875D01*
X94633544Y-96470113D01*
X94779225Y-96409770D01*
X94910335Y-96322165D01*
X95021835Y-96210665D01*
X95109440Y-96079555D01*
X95109740Y-96078832D01*
X95169781Y-95933878D01*
X95169783Y-95933874D01*
X95200546Y-95779219D01*
X95200546Y-95621535D01*
X95200546Y-95621532D01*
X95200545Y-95621530D01*
X95174322Y-95489701D01*
X95169783Y-95466880D01*
X95136976Y-95387676D01*
X95109443Y-95321205D01*
X95109436Y-95321192D01*
X95021835Y-95190089D01*
X95021832Y-95190085D01*
X94910338Y-95078591D01*
X94910334Y-95078588D01*
X94779231Y-94990987D01*
X94779218Y-94990980D01*
X94633548Y-94930642D01*
X94633536Y-94930639D01*
X94478892Y-94899878D01*
X94478889Y-94899878D01*
X94321205Y-94899878D01*
X94321202Y-94899878D01*
X94166557Y-94930639D01*
X94166545Y-94930642D01*
X94020875Y-94990980D01*
X94020862Y-94990987D01*
X93889759Y-95078588D01*
X93889755Y-95078591D01*
X93778261Y-95190085D01*
X93778258Y-95190089D01*
X93690657Y-95321192D01*
X93690650Y-95321205D01*
X93630312Y-95466875D01*
X93630309Y-95466887D01*
X93599548Y-95621530D01*
X88000500Y-95621530D01*
X88000500Y-85124500D01*
X88020185Y-85057461D01*
X88072989Y-85011706D01*
X88124500Y-85000500D01*
X164875500Y-85000500D01*
X164942539Y-85020185D01*
G37*
%TD.AperFunction*%
%TA.AperFunction,Conductor*%
G36*
X111000569Y-125519675D02*
G01*
X111046324Y-125572479D01*
X111048080Y-125576512D01*
X111068325Y-125625388D01*
X111090675Y-125679347D01*
X111098143Y-125748816D01*
X111066867Y-125811295D01*
X111006778Y-125846947D01*
X110976918Y-125850795D01*
X110222662Y-125855693D01*
X110190748Y-125846547D01*
X110158584Y-125838338D01*
X110157303Y-125836963D01*
X110155496Y-125836445D01*
X110133592Y-125811495D01*
X110110973Y-125787201D01*
X110110639Y-125785350D01*
X110109400Y-125783939D01*
X110104464Y-125751128D01*
X110098567Y-125718441D01*
X110099184Y-125716023D01*
X110099007Y-125714846D01*
X110107296Y-125684244D01*
X110151909Y-125576538D01*
X110195750Y-125522134D01*
X110262044Y-125500069D01*
X110266470Y-125499990D01*
X110933530Y-125499990D01*
X111000569Y-125519675D01*
G37*
%TD.AperFunction*%
%TA.AperFunction,Conductor*%
G36*
X132589314Y-89106738D02*
G01*
X132611403Y-89108318D01*
X132622186Y-89116390D01*
X132635108Y-89120185D01*
X132649607Y-89136918D01*
X132667336Y-89150190D01*
X132672043Y-89162810D01*
X132680863Y-89172989D01*
X132684014Y-89194906D01*
X132691753Y-89215654D01*
X132688890Y-89228814D01*
X132690807Y-89242147D01*
X132681607Y-89262290D01*
X132676901Y-89283927D01*
X132663632Y-89301652D01*
X132661782Y-89305703D01*
X132655750Y-89312181D01*
X132578223Y-89389707D01*
X132578220Y-89389711D01*
X132490619Y-89520814D01*
X132490612Y-89520827D01*
X132448109Y-89623442D01*
X132404269Y-89677846D01*
X132337974Y-89699911D01*
X132333548Y-89699990D01*
X131666462Y-89699990D01*
X131599423Y-89680305D01*
X131553668Y-89627501D01*
X131551901Y-89623442D01*
X131509397Y-89520827D01*
X131509390Y-89520814D01*
X131421789Y-89389711D01*
X131421786Y-89389707D01*
X131344260Y-89312181D01*
X131310775Y-89250858D01*
X131315759Y-89181166D01*
X131357631Y-89125233D01*
X131423095Y-89100816D01*
X131431941Y-89100500D01*
X132568069Y-89100500D01*
X132589314Y-89106738D01*
G37*
%TD.AperFunction*%
%TD*%
M02*
