%TF.GenerationSoftware,KiCad,Pcbnew,9.0.6*%
%TF.CreationDate,2025-11-09T20:54:40-05:00*%
%TF.ProjectId,TTEFI,54544546-492e-46b6-9963-61645f706362,rev?*%
%TF.SameCoordinates,Original*%
%TF.FileFunction,Copper,L1,Top*%
%TF.FilePolarity,Positive*%
%FSLAX46Y46*%
G04 Gerber Fmt 4.6, Leading zero omitted, Abs format (unit mm)*
G04 Created by KiCad (PCBNEW 9.0.6) date 2025-11-09 20:54:40*
%MOMM*%
%LPD*%
G01*
G04 APERTURE LIST*
G04 Aperture macros list*
%AMHorizOval*
0 Thick line with rounded ends*
0 $1 width*
0 $2 $3 position (X,Y) of the first rounded end (center of the circle)*
0 $4 $5 position (X,Y) of the second rounded end (center of the circle)*
0 Add line between two ends*
20,1,$1,$2,$3,$4,$5,0*
0 Add two circle primitives to create the rounded ends*
1,1,$1,$2,$3*
1,1,$1,$4,$5*%
G04 Aperture macros list end*
%TA.AperFunction,Conductor*%
%ADD10C,0.200000*%
%TD*%
%TA.AperFunction,ComponentPad*%
%ADD11C,0.600000*%
%TD*%
%TA.AperFunction,SMDPad,CuDef*%
%ADD12R,0.200000X3.700000*%
%TD*%
%TA.AperFunction,SMDPad,CuDef*%
%ADD13R,0.200000X0.400000*%
%TD*%
%TA.AperFunction,SMDPad,CuDef*%
%ADD14R,0.200000X1.600000*%
%TD*%
%TA.AperFunction,SMDPad,CuDef*%
%ADD15R,0.200000X9.700000*%
%TD*%
%TA.AperFunction,SMDPad,CuDef*%
%ADD16R,0.200000X2.300000*%
%TD*%
%TA.AperFunction,SMDPad,CuDef*%
%ADD17R,1.400000X0.200000*%
%TD*%
%TA.AperFunction,SMDPad,CuDef*%
%ADD18R,6.400000X0.200000*%
%TD*%
%TA.AperFunction,SMDPad,CuDef*%
%ADD19R,1.700000X0.200000*%
%TD*%
%TA.AperFunction,SMDPad,CuDef*%
%ADD20R,3.300000X0.200000*%
%TD*%
%TA.AperFunction,SMDPad,CuDef*%
%ADD21R,0.200000X7.000000*%
%TD*%
%TA.AperFunction,SMDPad,CuDef*%
%ADD22R,0.200000X3.300000*%
%TD*%
%TA.AperFunction,SMDPad,CuDef*%
%ADD23R,0.200000X6.300000*%
%TD*%
%TA.AperFunction,ComponentPad*%
%ADD24C,1.500000*%
%TD*%
%TA.AperFunction,SMDPad,CuDef*%
%ADD25O,0.200000X3.300000*%
%TD*%
%TA.AperFunction,SMDPad,CuDef*%
%ADD26O,0.200000X10.200000*%
%TD*%
%TA.AperFunction,SMDPad,CuDef*%
%ADD27O,0.200000X0.300000*%
%TD*%
%TA.AperFunction,SMDPad,CuDef*%
%ADD28O,17.000000X0.200000*%
%TD*%
%TA.AperFunction,SMDPad,CuDef*%
%ADD29O,15.400000X0.200000*%
%TD*%
%TA.AperFunction,SMDPad,CuDef*%
%ADD30O,0.200000X4.800000*%
%TD*%
%TA.AperFunction,SMDPad,CuDef*%
%ADD31O,0.200000X2.600000*%
%TD*%
%TA.AperFunction,SMDPad,CuDef*%
%ADD32O,0.200000X1.000000*%
%TD*%
%TA.AperFunction,SMDPad,CuDef*%
%ADD33O,0.200000X1.500000*%
%TD*%
%TA.AperFunction,SMDPad,CuDef*%
%ADD34O,0.250000X10.200000*%
%TD*%
%TA.AperFunction,SMDPad,CuDef*%
%ADD35HorizOval,0.250000X0.141421X0.141421X-0.141421X-0.141421X0*%
%TD*%
%TA.AperFunction,SMDPad,CuDef*%
%ADD36O,5.800001X0.250000*%
%TD*%
%TA.AperFunction,SMDPad,CuDef*%
%ADD37O,0.200000X0.399999*%
%TD*%
%TA.AperFunction,ComponentPad*%
%ADD38C,0.599999*%
%TD*%
%TA.AperFunction,ViaPad*%
%ADD39C,0.600000*%
%TD*%
G04 APERTURE END LIST*
D10*
%TO.N,Net-(M2-IGN8_(PE6))*%
X96500000Y-98000000D02*
X98500000Y-98000000D01*
X95500000Y-104000000D02*
X95500000Y-99000000D01*
X109000000Y-111000000D02*
X95500000Y-104000000D01*
%TD*%
D11*
%TO.P,M2,E1,V5A_SWITCHABLE*%
%TO.N,unconnected-(M2-V5A_SWITCHABLE-PadE1)*%
X142400000Y-118799990D03*
%TO.P,M2,E2,GNDA*%
%TO.N,unconnected-(M2-GNDA-PadE2)*%
X142400010Y-114499990D03*
%TO.P,M2,E3,I2C_SCL_(PB10)*%
%TO.N,unconnected-(M2-I2C_SCL_(PB10)-PadE3)*%
X142400010Y-113700000D03*
%TO.P,M2,E4,I2C_SDA_(PB11)*%
%TO.N,unconnected-(M2-I2C_SDA_(PB11)-PadE4)*%
X142400010Y-112899990D03*
%TO.P,M2,E5,IN_VIGN_(PA5)*%
%TO.N,Net-(M1-VIGN)*%
X142400010Y-112099990D03*
%TO.P,M2,E6,SPI2_CS_/_CAN2_RX_(PB12)*%
%TO.N,unconnected-(M2-SPI2_CS_{slash}_CAN2_RX_(PB12)-PadE6)*%
X142400010Y-111299990D03*
%TO.P,M2,E7,SPI2_SCK_/_CAN2_TX_(PB13)*%
%TO.N,unconnected-(M2-SPI2_SCK_{slash}_CAN2_TX_(PB13)-PadE7)*%
X142400010Y-110499990D03*
%TO.P,M2,E8,SPI2_MISO_(PB14)*%
%TO.N,unconnected-(M2-SPI2_MISO_(PB14)-PadE8)*%
X142400010Y-109699990D03*
%TO.P,M2,E9,SPI2_MOSI_(PB15)*%
%TO.N,unconnected-(M2-SPI2_MOSI_(PB15)-PadE9)*%
X142400010Y-108899990D03*
%TO.P,M2,E10,OUT_INJ8_(PD12)*%
%TO.N,unconnected-(M2-OUT_INJ8_(PD12)-PadE10)*%
X142400010Y-108099990D03*
%TO.P,M2,E11,OUT_INJ7_(PD15)*%
%TO.N,unconnected-(M2-OUT_INJ7_(PD15)-PadE11)*%
X142400010Y-107299990D03*
%TO.P,M2,E12,OUT_INJ6_(PA8)*%
%TO.N,unconnected-(M2-OUT_INJ6_(PA8)-PadE12)*%
X142400010Y-106499990D03*
%TO.P,M2,E13,OUT_INJ5_(PD2)*%
%TO.N,unconnected-(M2-OUT_INJ5_(PD2)-PadE13)*%
X142400010Y-105699990D03*
%TO.P,M2,E14,OUT_INJ4_(PD10)*%
%TO.N,unconnected-(M2-OUT_INJ4_(PD10)-PadE14)*%
X142400010Y-104899990D03*
%TO.P,M2,E15,OUT_INJ3_(PD11)*%
%TO.N,unconnected-(M2-OUT_INJ3_(PD11)-PadE15)*%
X142400010Y-104099990D03*
%TO.P,M2,E16,OUT_INJ2_(PA9)*%
%TO.N,unconnected-(M2-OUT_INJ2_(PA9)-PadE16)*%
X142400000Y-103300000D03*
%TO.P,M2,E17,OUT_INJ1_(PD3)*%
%TO.N,unconnected-(M2-OUT_INJ1_(PD3)-PadE17)*%
X142400010Y-102499990D03*
%TO.P,M2,E18,OUT_PWM1_(PD13)*%
%TO.N,unconnected-(M2-OUT_PWM1_(PD13)-PadE18)*%
X142400010Y-101099990D03*
%TO.P,M2,E19,OUT_PWM2_(PC6)*%
%TO.N,unconnected-(M2-OUT_PWM2_(PC6)-PadE19)*%
X142400010Y-100300000D03*
%TO.P,M2,E20,OUT_PWM3_(PC7)*%
%TO.N,unconnected-(M2-OUT_PWM3_(PC7)-PadE20)*%
X142400010Y-99500000D03*
%TO.P,M2,E21,OUT_PWM4_(PC8)*%
%TO.N,unconnected-(M2-OUT_PWM4_(PC8)-PadE21)*%
X142400010Y-98700000D03*
%TO.P,M2,E22,OUT_PWM5_(PC9)*%
%TO.N,unconnected-(M2-OUT_PWM5_(PC9)-PadE22)*%
X142400010Y-97900000D03*
%TO.P,M2,E23,OUT_PWM6_(PD14)*%
%TO.N,unconnected-(M2-OUT_PWM6_(PD14)-PadE23)*%
X142400010Y-97099990D03*
D12*
%TO.P,M2,G,GND*%
%TO.N,GND*%
X108800000Y-92250000D03*
D13*
X108800000Y-95299990D03*
D12*
X108800000Y-98350000D03*
D14*
X108800000Y-102799990D03*
D15*
X108800000Y-116449990D03*
D16*
X108800000Y-124449990D03*
D17*
X110600010Y-125500000D03*
D18*
X112700000Y-89700000D03*
D19*
X118750000Y-89700000D03*
D20*
X122250000Y-89700000D03*
D17*
X132000000Y-89700000D03*
D18*
X139500000Y-125500000D03*
D21*
X142600010Y-93099980D03*
D13*
X142600010Y-101800000D03*
D22*
X142600010Y-116650000D03*
D23*
X142600010Y-122450000D03*
D11*
%TO.P,M2,N1,VBUS*%
%TO.N,unconnected-(M2-VBUS-PadN1)*%
X142000010Y-89899990D03*
%TO.P,M2,N2,USBM_(PA11)*%
%TO.N,unconnected-(M2-USBM_(PA11)-PadN2)*%
X141200010Y-89899990D03*
%TO.P,M2,N3,USBP_(PA12)*%
%TO.N,unconnected-(M2-USBP_(PA12)-PadN3)*%
X140400010Y-89899990D03*
%TO.P,M2,N4,USBID_(PA10)*%
%TO.N,unconnected-(M2-USBID_(PA10)-PadN4)*%
X139600000Y-89899990D03*
%TO.P,M2,N5,SWDIO_(PA13)*%
%TO.N,unconnected-(M2-SWDIO_(PA13)-PadN5)*%
X138800010Y-89899990D03*
%TO.P,M2,N6,SWCLK_(PA14)*%
%TO.N,unconnected-(M2-SWCLK_(PA14)-PadN6)*%
X138000010Y-89899990D03*
%TO.P,M2,N7,nReset*%
%TO.N,unconnected-(M2-nReset-PadN7)*%
X137200010Y-89899990D03*
%TO.P,M2,N8,SWO_(PB3)*%
%TO.N,unconnected-(M2-SWO_(PB3)-PadN8)*%
X136400000Y-89899990D03*
%TO.P,M2,N9,SPI3_CS_(PA15)*%
%TO.N,unconnected-(M2-SPI3_CS_(PA15)-PadN9)*%
X135600010Y-89900000D03*
%TO.P,M2,N10,SPI3_SCK_(PC10)*%
%TO.N,unconnected-(M2-SPI3_SCK_(PC10)-PadN10)*%
X134800010Y-89900000D03*
%TO.P,M2,N11,SPI3_MISO_(PC11)*%
%TO.N,unconnected-(M2-SPI3_MISO_(PC11)-PadN11)*%
X134000010Y-89900000D03*
%TO.P,M2,N12,SPI3_MOSI_(PC12)*%
%TO.N,Net-(M1-PG_5VP)*%
X133200010Y-89900000D03*
%TO.P,M2,N13,UART2_TX_(PD5)*%
%TO.N,unconnected-(M2-UART2_TX_(PD5)-PadN13)*%
X130800000Y-89900000D03*
%TO.P,M2,N14,UART2_RX_(PD6)*%
%TO.N,unconnected-(M2-UART2_RX_(PD6)-PadN14)*%
X130000000Y-89900000D03*
%TO.P,M2,N14a,LED_GREEN*%
%TO.N,unconnected-(M2-LED_GREEN-PadN14a)*%
X129200010Y-89899990D03*
%TO.P,M2,N14b,LED_YELLOW*%
%TO.N,unconnected-(M2-LED_YELLOW-PadN14b)*%
X128400000Y-89899990D03*
%TO.P,M2,N15,V33_SWITCHABLE*%
%TO.N,unconnected-(M2-V33_SWITCHABLE-PadN15)*%
X127600000Y-89899990D03*
%TO.P,M2,N16,BOOT0*%
%TO.N,unconnected-(M2-BOOT0-PadN16)*%
X126800000Y-89899990D03*
%TO.P,M2,N17,VBAT*%
%TO.N,Net-(M1-VBAT)*%
X126000000Y-89899990D03*
%TO.P,M2,N18,UART8_RX_(PE0)*%
%TO.N,unconnected-(M2-UART8_RX_(PE0)-PadN18)*%
X125200000Y-89900000D03*
%TO.P,M2,N19,UART8_TX_(PE1)*%
%TO.N,unconnected-(M2-UART8_TX_(PE1)-PadN19)*%
X124400000Y-89900000D03*
%TO.P,M2,N20,OUT_PWR_EN_(PE10)*%
%TO.N,Net-(M1-EN_5VP)*%
X120100000Y-89900000D03*
%TO.P,M2,N21,V33*%
%TO.N,Net-(M3-V33)*%
X117400000Y-89900000D03*
%TO.P,M2,N22,VCC*%
%TO.N,+5V*%
X116400010Y-89900000D03*
%TO.P,M2,N23,V33*%
%TO.N,unconnected-(M2-V33-PadN23)*%
X109000000Y-89900000D03*
%TO.P,M2,S1,IN_D4_(PE15)*%
%TO.N,unconnected-(M2-IN_D4_(PE15)-PadS1)*%
X135800020Y-125300000D03*
%TO.P,M2,S2,IN_D3_(PE14)*%
%TO.N,unconnected-(M2-IN_D3_(PE14)-PadS2)*%
X134600010Y-125300000D03*
%TO.P,M2,S3,IN_D2_(PE13)*%
%TO.N,unconnected-(M2-IN_D2_(PE13)-PadS3)*%
X133400010Y-125300000D03*
%TO.P,M2,S4,IN_D1_(PE12)*%
%TO.N,unconnected-(M2-IN_D1_(PE12)-PadS4)*%
X132200010Y-125300000D03*
%TO.P,M2,S5,VREF2*%
%TO.N,unconnected-(M2-VREF2-PadS5)*%
X131000010Y-125300000D03*
%TO.P,M2,S6,IN_AUX4_(PC5)*%
%TO.N,unconnected-(M2-IN_AUX4_(PC5)-PadS6)*%
X129800010Y-125300000D03*
%TO.P,M2,S7,IN_AUX3_(PA7)*%
%TO.N,unconnected-(M2-IN_AUX3_(PA7)-PadS7)*%
X128600010Y-125300000D03*
%TO.P,M2,S8,IN_AUX2_(PC4/PE9)*%
%TO.N,unconnected-(M2-IN_AUX2_(PC4{slash}PE9)-PadS8)*%
X127400010Y-125300000D03*
%TO.P,M2,S9,IN_AUX1_(PB0)*%
%TO.N,unconnected-(M2-IN_AUX1_(PB0)-PadS9)*%
X126200010Y-125300000D03*
%TO.P,M2,S10,IN_O2S2_(PA1)*%
%TO.N,unconnected-(M2-IN_O2S2_(PA1)-PadS10)*%
X125000010Y-125300000D03*
%TO.P,M2,S11,IN_O2S_/_CAN_WAKEUP_(PA0)*%
%TO.N,unconnected-(M2-IN_O2S_{slash}_CAN_WAKEUP_(PA0)-PadS11)*%
X123800010Y-125300000D03*
%TO.P,M2,S12,IN_MAP2_(PC1)*%
%TO.N,unconnected-(M2-IN_MAP2_(PC1)-PadS12)*%
X122600010Y-125300000D03*
%TO.P,M2,S13,IN_MAP1_(PC0)*%
%TO.N,unconnected-(M2-IN_MAP1_(PC0)-PadS13)*%
X121400010Y-125300000D03*
%TO.P,M2,S14,IN_CRANK_(PB1)*%
%TO.N,unconnected-(M2-IN_CRANK_(PB1)-PadS14)*%
X120200010Y-125300000D03*
%TO.P,M2,S15,IN_KNOCK_(PA2)*%
%TO.N,unconnected-(M2-IN_KNOCK_(PA2)-PadS15)*%
X119000010Y-125300000D03*
%TO.P,M2,S16,IN_CAM_(PA6)*%
%TO.N,unconnected-(M2-IN_CAM_(PA6)-PadS16)*%
X117800010Y-125300000D03*
%TO.P,M2,S17,IN_VSS_(PE11)*%
%TO.N,unconnected-(M2-IN_VSS_(PE11)-PadS17)*%
X116600010Y-125300000D03*
%TO.P,M2,S18,IN_TPS_(PA4)*%
%TO.N,unconnected-(M2-IN_TPS_(PA4)-PadS18)*%
X115400000Y-125300000D03*
%TO.P,M2,S19,IN_PPS_(PA3)*%
%TO.N,unconnected-(M2-IN_PPS_(PA3)-PadS19)*%
X114200000Y-125300000D03*
%TO.P,M2,S20,IN_IAT_(PC3)*%
%TO.N,unconnected-(M2-IN_IAT_(PC3)-PadS20)*%
X113000000Y-125300000D03*
%TO.P,M2,S21,IN_CLT_(PC2)*%
%TO.N,unconnected-(M2-IN_CLT_(PC2)-PadS21)*%
X111800000Y-125300000D03*
%TO.P,M2,S22,VREF1*%
%TO.N,unconnected-(M2-VREF1-PadS22)*%
X109400000Y-125300000D03*
%TO.P,M2,W1,GNDA*%
%TO.N,GNDA*%
X109000000Y-122799990D03*
%TO.P,M2,W2,V5A_SWITCHABLE*%
%TO.N,unconnected-(M2-V5A_SWITCHABLE-PadW2)*%
X109000000Y-121799990D03*
%TO.P,M2,W3,IGN8_(PE6)*%
%TO.N,Net-(M2-IGN8_(PE6))*%
X109000000Y-111100000D03*
%TO.P,M2,W4,IGN7_(PB9)*%
%TO.N,Net-(M2-IGN7_(PB9))*%
X109000000Y-110099990D03*
%TO.P,M2,W5,IGN6_(PB8)*%
%TO.N,Net-(M2-IGN6_(PB8))*%
X109000000Y-109100000D03*
%TO.P,M2,W6,IGN5_(PE2)*%
%TO.N,Net-(M2-IGN5_(PE2))*%
X109000000Y-108100000D03*
%TO.P,M2,W7,IGN4_(PE3)*%
%TO.N,Net-(M2-IGN4_(PE3))*%
X109000000Y-107100000D03*
%TO.P,M2,W8,IGN3_(PE4)*%
%TO.N,Net-(M2-IGN3_(PE4))*%
X109000000Y-106100000D03*
%TO.P,M2,W9,IGN2_(PE5)*%
%TO.N,Net-(M2-IGN2_(PE5))*%
X109000000Y-105100000D03*
%TO.P,M2,W10,IGN1_(PC13)*%
%TO.N,Net-(M2-IGN1_(PC13))*%
X109000000Y-104100000D03*
%TO.P,M2,W11,CANH*%
%TO.N,unconnected-(M2-CANH-PadW11)*%
X109000000Y-101500000D03*
%TO.P,M2,W12,CANL*%
%TO.N,unconnected-(M2-CANL-PadW12)*%
X109000000Y-100700000D03*
%TO.P,M2,W13,V33_REF*%
%TO.N,unconnected-(M2-V33_REF-PadW13)*%
X109000000Y-95999990D03*
%TO.P,M2,W14,V5A_SWITCHABLE*%
%TO.N,unconnected-(M2-V5A_SWITCHABLE-PadW14)*%
X109000000Y-94600000D03*
%TD*%
D24*
%TO.P,M1,E1,VBAT*%
%TO.N,Net-(M1-VBAT)*%
X160199996Y-90799982D03*
%TO.P,M1,E2,V12*%
%TO.N,unconnected-(M1-V12-PadE2)*%
X160199996Y-97199979D03*
%TO.P,M1,E3,VIGN*%
%TO.N,Net-(M1-VIGN)*%
X160199996Y-99099982D03*
%TO.P,M1,E4,V5*%
%TO.N,+5V*%
X160199996Y-103399982D03*
D11*
%TO.P,M1,E5,EN_5VP*%
%TO.N,Net-(M1-EN_5VP)*%
X160649995Y-105799979D03*
%TO.P,M1,E6,PG_5VP*%
%TO.N,Net-(M1-PG_5VP)*%
X160649995Y-106799980D03*
D25*
%TO.P,M1,S1,GND*%
%TO.N,unconnected-(M1-GND-PadS1)*%
X144050000Y-94649982D03*
D26*
X144050000Y-103149980D03*
D27*
X144050000Y-110249982D03*
D28*
X152449998Y-110299982D03*
D29*
X153249999Y-89699982D03*
D24*
X160199996Y-109649982D03*
D27*
X160849997Y-89749982D03*
D30*
X160849997Y-93949980D03*
D31*
X160849997Y-101299982D03*
D32*
X160849997Y-104799979D03*
D33*
X160849997Y-108099980D03*
D24*
%TO.P,M1,V1,V12_PERM*%
%TO.N,+12V*%
X144699999Y-90349980D03*
%TO.P,M1,V2,IN_VIGN*%
%TO.N,unconnected-(M1-IN_VIGN-PadV2)*%
X144699999Y-92199979D03*
%TO.P,M1,V3,V12_RAW*%
%TO.N,+12V*%
X144699999Y-97149982D03*
%TO.P,M1,V4,5VP*%
%TO.N,+5VP*%
X144699999Y-109199980D03*
%TD*%
D34*
%TO.P,M3,G,GND*%
%TO.N,GND*%
X92875052Y-99875378D03*
D35*
X93025056Y-94775383D03*
D36*
X95987552Y-94625383D03*
D37*
%TO.P,M3,S1,OUT_IGN8*%
%TO.N,unconnected-(M3-OUT_IGN8-PadS1)*%
X100500000Y-108000000D03*
%TO.P,M3,S2,OUT_IGN7*%
%TO.N,unconnected-(M3-OUT_IGN7-PadS2)*%
X99740021Y-108000000D03*
%TO.P,M3,S3,OUT_IGN6*%
%TO.N,unconnected-(M3-OUT_IGN6-PadS3)*%
X98565028Y-108000000D03*
%TO.P,M3,S4,OUT_IGN5*%
%TO.N,unconnected-(M3-OUT_IGN5-PadS4)*%
X97390041Y-108000000D03*
%TO.P,M3,S5,OUT_IGN4*%
%TO.N,unconnected-(M3-OUT_IGN4-PadS5)*%
X96550129Y-108000000D03*
%TO.P,M3,S6,OUT_IGN3*%
%TO.N,unconnected-(M3-OUT_IGN3-PadS6)*%
X95800057Y-108000000D03*
%TO.P,M3,S7,OUT_IGN2*%
%TO.N,unconnected-(M3-OUT_IGN2-PadS7)*%
X94625046Y-108000000D03*
%TO.P,M3,S8,OUT_IGN1*%
%TO.N,unconnected-(M3-OUT_IGN1-PadS8)*%
X93450049Y-108000000D03*
D38*
%TO.P,M3,V1,IGN8*%
%TO.N,Net-(M2-IGN8_(PE6))*%
X98490052Y-97900393D03*
%TO.P,M3,V2,IGN7*%
%TO.N,Net-(M2-IGN7_(PB9))*%
X100325062Y-98325401D03*
%TO.P,M3,V3,IGN6*%
%TO.N,Net-(M2-IGN6_(PB8))*%
X98275054Y-98875398D03*
%TO.P,M3,V4,IGN5*%
%TO.N,Net-(M2-IGN5_(PE2))*%
X98490049Y-99750357D03*
%TO.P,M3,V5,IGN4*%
%TO.N,Net-(M2-IGN4_(PE3))*%
X98565056Y-100600380D03*
%TO.P,M3,V6,IGN3*%
%TO.N,Net-(M2-IGN3_(PE4))*%
X100325062Y-100925396D03*
%TO.P,M3,V7,IGN2*%
%TO.N,Net-(M2-IGN2_(PE5))*%
X99015062Y-102225363D03*
%TO.P,M3,V8,IGN1*%
%TO.N,Net-(M2-IGN1_(PC13))*%
X100325062Y-102875380D03*
%TO.P,M3,V9,VCC*%
%TO.N,+5V*%
X94400047Y-95700377D03*
%TO.P,M3,V10,V33*%
%TO.N,Net-(M3-V33)*%
X98475053Y-96000379D03*
%TD*%
D39*
%TO.N,GND*%
X113500000Y-89000000D03*
X106500000Y-95500000D03*
X107500000Y-98500000D03*
X108000000Y-93500000D03*
X105000000Y-92500000D03*
X107000000Y-90500000D03*
X108000000Y-88000000D03*
X118500000Y-88500000D03*
X89500000Y-86500000D03*
X98000000Y-86500000D03*
X101500000Y-86500000D03*
X105000000Y-86500000D03*
%TD*%
D10*
%TO.N,Net-(M3-V33)*%
X117400000Y-89100000D02*
X117400000Y-89900000D01*
X117899000Y-88601000D02*
X117400000Y-89100000D01*
X117899000Y-88000000D02*
X117899000Y-88601000D01*
X108248943Y-88601000D02*
X108849943Y-88000000D01*
X108849943Y-88000000D02*
X117899000Y-88000000D01*
X108000000Y-91500000D02*
X108000000Y-88601000D01*
X102500000Y-97000000D02*
X108000000Y-91500000D01*
X99474674Y-97000000D02*
X102500000Y-97000000D01*
X98475053Y-96000379D02*
X99474674Y-97000000D01*
X108000000Y-88601000D02*
X108248943Y-88601000D01*
%TO.N,GND*%
X106700010Y-95299990D02*
X106500000Y-95500000D01*
X108800000Y-95299990D02*
X106700010Y-95299990D01*
%TO.N,Net-(M1-EN_5VP)*%
X120100000Y-88100000D02*
X120100000Y-89900000D01*
X145432900Y-88000000D02*
X120000000Y-88000000D01*
X143883898Y-110700982D02*
X143099000Y-109916084D01*
X162500000Y-109217080D02*
X161016098Y-110700982D01*
X143099000Y-90333900D02*
X145432900Y-88000000D01*
X143099000Y-109916084D02*
X143099000Y-90333900D01*
X162500000Y-107000000D02*
X162500000Y-109217080D01*
X161016098Y-110700982D02*
X143883898Y-110700982D01*
X120000000Y-88000000D02*
X120100000Y-88100000D01*
X161299979Y-105799979D02*
X162500000Y-107000000D01*
X160649995Y-105799979D02*
X161299979Y-105799979D01*
%TO.N,+5V*%
X161600018Y-103399982D02*
X160199996Y-103399982D01*
X162000000Y-103000000D02*
X161600018Y-103399982D01*
X106500000Y-87000000D02*
X163500000Y-87000000D01*
X106500000Y-89500000D02*
X106500000Y-87000000D01*
X162000000Y-102500000D02*
X162000000Y-103000000D01*
X94701044Y-95399380D02*
X100600620Y-95399380D01*
X100600620Y-95399380D02*
X106500000Y-89500000D01*
X94400047Y-95700377D02*
X94701044Y-95399380D01*
X163500000Y-87000000D02*
X163500000Y-101000000D01*
X163500000Y-101000000D02*
X162000000Y-102500000D01*
%TO.N,Net-(M2-IGN8_(PE6))*%
X96500000Y-98000000D02*
X95500000Y-99000000D01*
%TO.N,Net-(M2-IGN1_(PC13))*%
X108100000Y-104100000D02*
X109000000Y-104100000D01*
X100325062Y-102875380D02*
X106875380Y-102875380D01*
X106875380Y-102875380D02*
X108100000Y-104100000D01*
%TO.N,Net-(M2-IGN2_(PE5))*%
X108100000Y-105100000D02*
X109000000Y-105100000D01*
X107000000Y-104000000D02*
X108100000Y-105100000D01*
X100000000Y-104000000D02*
X107000000Y-104000000D01*
X99015062Y-103015062D02*
X100000000Y-104000000D01*
X99015062Y-102225363D02*
X99015062Y-103015062D01*
%TO.N,+12V*%
X144549979Y-90500000D02*
X144699999Y-90349980D01*
X143500000Y-90500000D02*
X144549979Y-90500000D01*
X143500000Y-97000000D02*
X143500000Y-90500000D01*
X143649982Y-97149982D02*
X143500000Y-97000000D01*
X144699999Y-97149982D02*
X143649982Y-97149982D01*
%TO.N,Net-(M2-IGN7_(PB9))*%
X109000000Y-110099990D02*
X108900010Y-110000000D01*
%TD*%
%TA.AperFunction,Conductor*%
%TO.N,GND*%
G36*
X164378323Y-85499204D02*
G01*
X164445231Y-85519326D01*
X164490640Y-85572428D01*
X164501502Y-85621670D01*
X164998444Y-125873969D01*
X164979588Y-125941247D01*
X164927353Y-125987650D01*
X164874453Y-125999500D01*
X136527370Y-125999500D01*
X136460331Y-125979815D01*
X136414576Y-125927011D01*
X136404632Y-125857853D01*
X136424268Y-125806609D01*
X136509410Y-125679185D01*
X136509410Y-125679184D01*
X136509414Y-125679179D01*
X136551929Y-125576538D01*
X136595769Y-125522134D01*
X136662063Y-125500069D01*
X136666490Y-125499990D01*
X142600000Y-125499990D01*
X142600000Y-119666456D01*
X142619685Y-119599417D01*
X142672489Y-119553662D01*
X142676548Y-119551895D01*
X142779172Y-119509387D01*
X142779172Y-119509386D01*
X142779179Y-119509384D01*
X142910289Y-119421779D01*
X143021789Y-119310279D01*
X143109394Y-119179169D01*
X143169737Y-119033487D01*
X143200500Y-118878832D01*
X143200500Y-118721148D01*
X143200500Y-118721145D01*
X143200499Y-118721143D01*
X143169738Y-118566500D01*
X143169737Y-118566493D01*
X143169735Y-118566488D01*
X143109397Y-118420817D01*
X143109390Y-118420804D01*
X143021789Y-118289701D01*
X143021786Y-118289697D01*
X142910292Y-118178203D01*
X142910288Y-118178200D01*
X142779185Y-118090599D01*
X142779175Y-118090594D01*
X142676547Y-118048084D01*
X142622144Y-118004243D01*
X142600079Y-117937949D01*
X142600000Y-117933523D01*
X142600000Y-115366460D01*
X142619685Y-115299421D01*
X142672489Y-115253666D01*
X142676548Y-115251899D01*
X142779182Y-115209387D01*
X142779182Y-115209386D01*
X142779189Y-115209384D01*
X142910299Y-115121779D01*
X143021799Y-115010279D01*
X143109404Y-114879169D01*
X143169747Y-114733487D01*
X143200510Y-114578832D01*
X143200510Y-114421148D01*
X143200510Y-114421145D01*
X143200509Y-114421143D01*
X143169748Y-114266500D01*
X143169747Y-114266493D01*
X143120436Y-114147446D01*
X143112968Y-114077978D01*
X143120437Y-114052542D01*
X143169747Y-113933497D01*
X143200510Y-113778842D01*
X143200510Y-113621158D01*
X143200510Y-113621155D01*
X143200509Y-113621153D01*
X143169748Y-113466510D01*
X143169747Y-113466503D01*
X143120433Y-113347447D01*
X143112964Y-113277978D01*
X143120433Y-113252543D01*
X143169745Y-113133491D01*
X143169747Y-113133487D01*
X143200510Y-112978832D01*
X143200510Y-112821148D01*
X143200510Y-112821145D01*
X143200509Y-112821143D01*
X143169748Y-112666500D01*
X143169747Y-112666493D01*
X143120435Y-112547442D01*
X143112966Y-112477973D01*
X143120435Y-112452538D01*
X143169745Y-112333491D01*
X143169747Y-112333487D01*
X143200510Y-112178832D01*
X143200510Y-112021148D01*
X143200510Y-112021145D01*
X143200509Y-112021143D01*
X143188752Y-111962039D01*
X143169747Y-111866493D01*
X143169745Y-111866488D01*
X143120435Y-111747442D01*
X143112966Y-111677973D01*
X143120435Y-111652538D01*
X143169745Y-111533491D01*
X143169747Y-111533487D01*
X143200510Y-111378832D01*
X143200510Y-111221148D01*
X143200510Y-111221146D01*
X143200510Y-111221145D01*
X143192280Y-111179772D01*
X143198507Y-111110180D01*
X143241370Y-111055003D01*
X143307259Y-111031758D01*
X143375256Y-111047825D01*
X143401578Y-111067898D01*
X143403377Y-111069697D01*
X143403378Y-111069698D01*
X143515182Y-111181502D01*
X143515184Y-111181503D01*
X143515188Y-111181506D01*
X143583858Y-111221152D01*
X143652114Y-111260559D01*
X143761034Y-111289744D01*
X143761033Y-111289744D01*
X143768479Y-111291739D01*
X143804840Y-111301482D01*
X143804841Y-111301482D01*
X160929429Y-111301482D01*
X160929445Y-111301483D01*
X160937041Y-111301483D01*
X161095152Y-111301483D01*
X161095155Y-111301483D01*
X161247883Y-111260559D01*
X161316144Y-111221148D01*
X161384814Y-111181502D01*
X161496618Y-111069698D01*
X161496618Y-111069696D01*
X161506822Y-111059493D01*
X161506826Y-111059488D01*
X162858506Y-109707808D01*
X162858511Y-109707804D01*
X162868714Y-109697600D01*
X162868716Y-109697600D01*
X162980520Y-109585796D01*
X163059577Y-109448864D01*
X163093889Y-109320811D01*
X163100500Y-109296138D01*
X163100500Y-109138023D01*
X163100500Y-107089059D01*
X163100501Y-107089046D01*
X163100501Y-106920945D01*
X163100501Y-106920943D01*
X163059577Y-106768215D01*
X163030639Y-106718095D01*
X162980520Y-106631284D01*
X162868716Y-106519480D01*
X162868715Y-106519479D01*
X162864385Y-106515149D01*
X162864374Y-106515139D01*
X161787569Y-105438334D01*
X161787567Y-105438331D01*
X161668696Y-105319460D01*
X161668695Y-105319459D01*
X161581883Y-105269339D01*
X161531764Y-105240402D01*
X161526511Y-105238994D01*
X161514854Y-105232599D01*
X161494782Y-105212447D01*
X161472635Y-105194597D01*
X161470443Y-105188011D01*
X161465547Y-105183095D01*
X161459556Y-105155290D01*
X161450576Y-105128301D01*
X161450497Y-105123885D01*
X161450497Y-104320924D01*
X161450497Y-104320922D01*
X161409574Y-104168195D01*
X161409573Y-104168193D01*
X161407470Y-104160344D01*
X161409810Y-104159716D01*
X161403653Y-104102473D01*
X161434924Y-104039992D01*
X161495011Y-104004336D01*
X161525684Y-104000483D01*
X161679072Y-104000483D01*
X161679075Y-104000483D01*
X161831803Y-103959559D01*
X161898687Y-103920943D01*
X161968734Y-103880502D01*
X162080538Y-103768698D01*
X162080538Y-103768696D01*
X162090742Y-103758493D01*
X162090746Y-103758488D01*
X162358506Y-103490728D01*
X162358511Y-103490724D01*
X162368714Y-103480520D01*
X162368716Y-103480520D01*
X162480520Y-103368716D01*
X162546429Y-103254558D01*
X162559577Y-103231785D01*
X162600501Y-103079057D01*
X162600501Y-102920943D01*
X162600501Y-102913348D01*
X162600500Y-102913330D01*
X162600500Y-102800096D01*
X162620185Y-102733057D01*
X162636814Y-102712420D01*
X163858506Y-101490727D01*
X163858511Y-101490724D01*
X163868714Y-101480520D01*
X163868716Y-101480520D01*
X163980520Y-101368716D01*
X164059577Y-101231784D01*
X164093373Y-101105656D01*
X164100500Y-101079058D01*
X164100500Y-100920943D01*
X164100500Y-86920943D01*
X164059577Y-86768216D01*
X164059573Y-86768209D01*
X163980524Y-86631290D01*
X163980518Y-86631282D01*
X163868717Y-86519481D01*
X163868709Y-86519475D01*
X163731790Y-86440426D01*
X163731786Y-86440424D01*
X163731784Y-86440423D01*
X163579057Y-86399500D01*
X106579057Y-86399500D01*
X106420943Y-86399500D01*
X106268216Y-86440423D01*
X106268209Y-86440426D01*
X106131290Y-86519475D01*
X106131282Y-86519481D01*
X106019481Y-86631282D01*
X106019475Y-86631290D01*
X105940426Y-86768209D01*
X105940423Y-86768216D01*
X105899500Y-86920943D01*
X105899500Y-89199903D01*
X105879815Y-89266942D01*
X105863181Y-89287584D01*
X100388204Y-94762561D01*
X100326881Y-94796046D01*
X100300523Y-94798880D01*
X99149052Y-94798880D01*
X99082013Y-94779195D01*
X99036258Y-94726391D01*
X99025052Y-94674880D01*
X99025052Y-94625378D01*
X99025051Y-94625378D01*
X93200863Y-94625380D01*
X92896331Y-94929912D01*
X92896309Y-104713885D01*
X92876624Y-104780925D01*
X92823820Y-104826679D01*
X92772309Y-104837885D01*
X92515063Y-104837885D01*
X92515063Y-108245369D01*
X92750063Y-108475368D01*
X92924820Y-108475368D01*
X92991859Y-108495053D01*
X93012501Y-108511687D01*
X93081333Y-108580519D01*
X93081335Y-108580520D01*
X93081339Y-108580523D01*
X93218258Y-108659572D01*
X93218265Y-108659576D01*
X93370992Y-108700499D01*
X93370994Y-108700499D01*
X93529104Y-108700499D01*
X93529106Y-108700499D01*
X93681833Y-108659576D01*
X93796572Y-108593332D01*
X93818760Y-108580522D01*
X93818760Y-108580521D01*
X93818765Y-108580519D01*
X93887593Y-108511689D01*
X93914526Y-108496982D01*
X93940340Y-108480394D01*
X93946539Y-108479502D01*
X93948916Y-108478205D01*
X93975275Y-108475371D01*
X94099820Y-108475371D01*
X94166859Y-108495056D01*
X94187501Y-108511690D01*
X94256330Y-108580519D01*
X94256332Y-108580520D01*
X94256336Y-108580523D01*
X94393255Y-108659572D01*
X94393262Y-108659576D01*
X94545989Y-108700499D01*
X94545991Y-108700499D01*
X94704101Y-108700499D01*
X94704103Y-108700499D01*
X94856830Y-108659576D01*
X94971569Y-108593332D01*
X94993757Y-108580522D01*
X94993757Y-108580521D01*
X94993762Y-108580519D01*
X95062587Y-108511692D01*
X95089520Y-108496985D01*
X95115334Y-108480397D01*
X95121533Y-108479505D01*
X95123910Y-108478208D01*
X95150266Y-108475374D01*
X95274836Y-108475374D01*
X95341873Y-108495059D01*
X95362515Y-108511693D01*
X95431341Y-108580519D01*
X95431343Y-108580520D01*
X95431347Y-108580523D01*
X95568266Y-108659572D01*
X95568273Y-108659576D01*
X95721000Y-108700499D01*
X95721002Y-108700499D01*
X95879112Y-108700499D01*
X95879114Y-108700499D01*
X96031841Y-108659576D01*
X96113094Y-108612664D01*
X96180993Y-108596192D01*
X96237091Y-108612664D01*
X96318345Y-108659576D01*
X96471072Y-108700499D01*
X96471074Y-108700499D01*
X96629184Y-108700499D01*
X96629186Y-108700499D01*
X96781913Y-108659576D01*
X96908085Y-108586730D01*
X96975985Y-108570258D01*
X97032084Y-108586730D01*
X97158257Y-108659576D01*
X97310984Y-108700499D01*
X97310986Y-108700499D01*
X97469096Y-108700499D01*
X97469098Y-108700499D01*
X97621825Y-108659576D01*
X97736564Y-108593332D01*
X97758752Y-108580522D01*
X97758752Y-108580521D01*
X97758757Y-108580519D01*
X97827575Y-108511699D01*
X97854508Y-108496992D01*
X97880322Y-108480404D01*
X97886521Y-108479512D01*
X97888898Y-108478215D01*
X97915254Y-108475381D01*
X98039814Y-108475381D01*
X98106851Y-108495066D01*
X98127493Y-108511700D01*
X98196312Y-108580519D01*
X98196314Y-108580520D01*
X98196318Y-108580523D01*
X98333237Y-108659572D01*
X98333244Y-108659576D01*
X98485971Y-108700499D01*
X98485973Y-108700499D01*
X98644083Y-108700499D01*
X98644085Y-108700499D01*
X98796812Y-108659576D01*
X98911551Y-108593332D01*
X98933739Y-108580522D01*
X98933739Y-108580521D01*
X98933744Y-108580519D01*
X99002558Y-108511703D01*
X99029491Y-108496996D01*
X99055305Y-108480408D01*
X99061504Y-108479516D01*
X99063881Y-108478219D01*
X99090240Y-108475385D01*
X99214809Y-108475385D01*
X99281848Y-108495070D01*
X99302490Y-108511704D01*
X99371305Y-108580519D01*
X99371307Y-108580520D01*
X99371311Y-108580523D01*
X99508230Y-108659572D01*
X99508237Y-108659576D01*
X99660964Y-108700499D01*
X99660966Y-108700499D01*
X99819076Y-108700499D01*
X99819078Y-108700499D01*
X99971805Y-108659576D01*
X100058012Y-108609804D01*
X100125910Y-108593332D01*
X100182008Y-108609804D01*
X100268216Y-108659576D01*
X100420943Y-108700499D01*
X100420945Y-108700499D01*
X100579055Y-108700499D01*
X100579057Y-108700499D01*
X100731784Y-108659576D01*
X100868716Y-108580519D01*
X100980520Y-108468715D01*
X101059577Y-108331783D01*
X101100500Y-108179056D01*
X101100500Y-107820944D01*
X101098421Y-107813185D01*
X101100084Y-107743339D01*
X101139246Y-107685476D01*
X101203474Y-107657971D01*
X101272376Y-107669557D01*
X101275238Y-107670993D01*
X108164889Y-111243405D01*
X108215342Y-111291739D01*
X108229425Y-111329289D01*
X108230260Y-111333489D01*
X108230263Y-111333499D01*
X108290602Y-111479172D01*
X108290609Y-111479185D01*
X108378210Y-111610288D01*
X108378213Y-111610292D01*
X108489707Y-111721786D01*
X108489711Y-111721789D01*
X108620814Y-111809390D01*
X108620827Y-111809397D01*
X108723452Y-111851905D01*
X108777856Y-111895745D01*
X108799921Y-111962039D01*
X108800000Y-111966466D01*
X108800000Y-120933523D01*
X108780315Y-121000562D01*
X108727511Y-121046317D01*
X108723453Y-121048084D01*
X108620824Y-121090594D01*
X108620814Y-121090599D01*
X108489711Y-121178200D01*
X108489707Y-121178203D01*
X108378213Y-121289697D01*
X108378210Y-121289701D01*
X108290609Y-121420804D01*
X108290602Y-121420817D01*
X108230264Y-121566488D01*
X108230261Y-121566500D01*
X108199500Y-121721143D01*
X108199500Y-121878836D01*
X108230261Y-122033479D01*
X108230264Y-122033491D01*
X108290602Y-122179162D01*
X108290609Y-122179175D01*
X108325304Y-122231099D01*
X108346182Y-122297776D01*
X108327698Y-122365157D01*
X108325304Y-122368881D01*
X108290609Y-122420804D01*
X108290602Y-122420817D01*
X108230264Y-122566488D01*
X108230261Y-122566500D01*
X108199500Y-122721143D01*
X108199500Y-122878836D01*
X108230261Y-123033479D01*
X108230264Y-123033491D01*
X108290602Y-123179162D01*
X108290609Y-123179175D01*
X108378210Y-123310278D01*
X108378213Y-123310282D01*
X108489707Y-123421776D01*
X108489711Y-123421779D01*
X108620814Y-123509380D01*
X108620827Y-123509387D01*
X108723452Y-123551895D01*
X108777856Y-123595735D01*
X108799921Y-123662029D01*
X108800000Y-123666456D01*
X108800000Y-124719486D01*
X108780315Y-124786525D01*
X108779102Y-124788377D01*
X108690609Y-124920814D01*
X108690602Y-124920827D01*
X108630264Y-125066498D01*
X108630261Y-125066510D01*
X108599500Y-125221153D01*
X108599500Y-125378846D01*
X108630261Y-125533489D01*
X108630264Y-125533501D01*
X108690602Y-125679172D01*
X108690609Y-125679185D01*
X108775752Y-125806609D01*
X108796630Y-125873286D01*
X108778146Y-125940666D01*
X108726167Y-125987357D01*
X108672650Y-125999500D01*
X88124500Y-125999500D01*
X88057461Y-125979815D01*
X88011706Y-125927011D01*
X88000500Y-125875500D01*
X88000500Y-85124816D01*
X88020185Y-85057777D01*
X88072989Y-85012022D01*
X88125309Y-85000819D01*
X164378323Y-85499204D01*
G37*
%TD.AperFunction*%
%TA.AperFunction,Conductor*%
G36*
X110952711Y-125505622D02*
G01*
X110972690Y-125506336D01*
X110985549Y-125515264D01*
X111000569Y-125519675D01*
X111013659Y-125534782D01*
X111030082Y-125546185D01*
X111044289Y-125570131D01*
X111046324Y-125572479D01*
X111048091Y-125576538D01*
X111090602Y-125679172D01*
X111090609Y-125679185D01*
X111175752Y-125806609D01*
X111196630Y-125873286D01*
X111178146Y-125940666D01*
X111126167Y-125987357D01*
X111072650Y-125999500D01*
X110127350Y-125999500D01*
X110060311Y-125979815D01*
X110014556Y-125927011D01*
X110004612Y-125857853D01*
X110024248Y-125806609D01*
X110109390Y-125679185D01*
X110109390Y-125679184D01*
X110109394Y-125679179D01*
X110151909Y-125576538D01*
X110195749Y-125522134D01*
X110262043Y-125500069D01*
X110266470Y-125499990D01*
X110933530Y-125499990D01*
X110952711Y-125505622D01*
G37*
%TD.AperFunction*%
%TA.AperFunction,Conductor*%
G36*
X108739272Y-91668098D02*
G01*
X108786883Y-91719235D01*
X108800000Y-91774741D01*
X108800000Y-93733533D01*
X108780315Y-93800572D01*
X108727511Y-93846327D01*
X108723453Y-93848094D01*
X108620824Y-93890604D01*
X108620814Y-93890609D01*
X108489711Y-93978210D01*
X108489707Y-93978213D01*
X108378213Y-94089707D01*
X108378210Y-94089711D01*
X108290609Y-94220814D01*
X108290602Y-94220827D01*
X108230264Y-94366498D01*
X108230261Y-94366510D01*
X108199500Y-94521153D01*
X108199500Y-94678846D01*
X108230261Y-94833489D01*
X108230264Y-94833501D01*
X108290602Y-94979172D01*
X108290609Y-94979185D01*
X108378210Y-95110288D01*
X108378213Y-95110292D01*
X108480235Y-95212314D01*
X108513720Y-95273637D01*
X108508736Y-95343329D01*
X108480235Y-95387676D01*
X108378213Y-95489697D01*
X108378210Y-95489701D01*
X108290609Y-95620804D01*
X108290602Y-95620817D01*
X108230264Y-95766488D01*
X108230261Y-95766500D01*
X108199500Y-95921143D01*
X108199500Y-96078836D01*
X108230261Y-96233479D01*
X108230264Y-96233491D01*
X108290602Y-96379162D01*
X108290609Y-96379175D01*
X108378210Y-96510278D01*
X108378213Y-96510282D01*
X108489707Y-96621776D01*
X108489711Y-96621779D01*
X108620814Y-96709380D01*
X108620827Y-96709387D01*
X108723452Y-96751895D01*
X108777856Y-96795735D01*
X108799921Y-96862029D01*
X108800000Y-96866456D01*
X108800000Y-99833533D01*
X108780315Y-99900572D01*
X108727511Y-99946327D01*
X108723453Y-99948094D01*
X108620824Y-99990604D01*
X108620814Y-99990609D01*
X108489711Y-100078210D01*
X108489707Y-100078213D01*
X108378213Y-100189707D01*
X108378210Y-100189711D01*
X108290609Y-100320814D01*
X108290602Y-100320827D01*
X108230264Y-100466498D01*
X108230261Y-100466510D01*
X108199500Y-100621153D01*
X108199500Y-100778846D01*
X108230261Y-100933489D01*
X108230264Y-100933501D01*
X108279574Y-101052548D01*
X108287043Y-101122018D01*
X108279574Y-101147452D01*
X108230264Y-101266498D01*
X108230261Y-101266510D01*
X108199500Y-101421153D01*
X108199500Y-101578846D01*
X108230261Y-101733489D01*
X108230264Y-101733501D01*
X108290602Y-101879172D01*
X108290609Y-101879185D01*
X108378210Y-102010288D01*
X108378213Y-102010292D01*
X108489707Y-102121786D01*
X108489711Y-102121789D01*
X108620814Y-102209390D01*
X108620827Y-102209397D01*
X108723452Y-102251905D01*
X108777856Y-102295745D01*
X108799921Y-102362039D01*
X108800000Y-102366466D01*
X108800000Y-103233533D01*
X108780315Y-103300572D01*
X108727511Y-103346327D01*
X108723453Y-103348094D01*
X108620824Y-103390604D01*
X108620814Y-103390609D01*
X108489125Y-103478602D01*
X108471078Y-103484252D01*
X108455169Y-103494477D01*
X108424207Y-103498928D01*
X108422447Y-103499480D01*
X108420234Y-103499500D01*
X108400097Y-103499500D01*
X108333058Y-103479815D01*
X108312416Y-103463181D01*
X107362970Y-102513735D01*
X107362968Y-102513732D01*
X107244097Y-102394861D01*
X107244096Y-102394860D01*
X107157284Y-102344740D01*
X107157284Y-102344739D01*
X107157280Y-102344738D01*
X107107165Y-102315803D01*
X106954437Y-102274879D01*
X106796323Y-102274879D01*
X106788727Y-102274879D01*
X106788711Y-102274880D01*
X101039124Y-102274880D01*
X100972085Y-102255195D01*
X100926330Y-102202391D01*
X100915124Y-102150883D01*
X100915107Y-101518733D01*
X100934790Y-101451693D01*
X100943259Y-101440059D01*
X100946841Y-101435692D01*
X100946850Y-101435684D01*
X101034455Y-101304574D01*
X101094798Y-101158893D01*
X101125561Y-101004238D01*
X101125561Y-100846554D01*
X101125561Y-100846551D01*
X101125560Y-100846549D01*
X101109725Y-100766941D01*
X101094798Y-100691899D01*
X101065494Y-100621153D01*
X101034458Y-100546224D01*
X101034451Y-100546211D01*
X100946850Y-100415107D01*
X100943223Y-100410688D01*
X100915910Y-100346378D01*
X100915076Y-100332037D01*
X100915040Y-98918818D01*
X100934723Y-98851780D01*
X100943190Y-98840148D01*
X100946842Y-98835696D01*
X100946850Y-98835689D01*
X101034455Y-98704579D01*
X101094798Y-98558898D01*
X101125561Y-98404243D01*
X101125561Y-98246559D01*
X101125561Y-98246556D01*
X101125560Y-98246554D01*
X101094799Y-98091911D01*
X101094798Y-98091904D01*
X101094796Y-98091899D01*
X101034458Y-97946229D01*
X101034451Y-97946216D01*
X100946848Y-97815110D01*
X100943159Y-97810615D01*
X100933451Y-97787760D01*
X100920027Y-97766866D01*
X100917702Y-97750684D01*
X100915843Y-97746306D01*
X100915009Y-97731945D01*
X100915010Y-97724483D01*
X100934704Y-97657447D01*
X100987514Y-97611699D01*
X101039010Y-97600500D01*
X102413331Y-97600500D01*
X102413347Y-97600501D01*
X102420943Y-97600501D01*
X102579054Y-97600501D01*
X102579057Y-97600501D01*
X102731785Y-97559577D01*
X102791843Y-97524902D01*
X102868716Y-97480520D01*
X102980520Y-97368716D01*
X102980520Y-97368714D01*
X102990724Y-97358511D01*
X102990727Y-97358506D01*
X108480520Y-91868716D01*
X108559577Y-91731784D01*
X108559579Y-91731773D01*
X108561438Y-91727290D01*
X108605278Y-91672886D01*
X108671572Y-91650820D01*
X108739272Y-91668098D01*
G37*
%TD.AperFunction*%
%TA.AperFunction,Conductor*%
G36*
X108122090Y-87606738D02*
G01*
X108144178Y-87608318D01*
X108154961Y-87616390D01*
X108167884Y-87620185D01*
X108182382Y-87636916D01*
X108200112Y-87650189D01*
X108204819Y-87662811D01*
X108213639Y-87672989D01*
X108216790Y-87694905D01*
X108224529Y-87715654D01*
X108221666Y-87728814D01*
X108223583Y-87742147D01*
X108214383Y-87762290D01*
X108209677Y-87783927D01*
X108196407Y-87801654D01*
X108194558Y-87805703D01*
X108188533Y-87812173D01*
X108036525Y-87964182D01*
X107975204Y-87997666D01*
X107948846Y-88000500D01*
X107920943Y-88000500D01*
X107768216Y-88041423D01*
X107768209Y-88041426D01*
X107631290Y-88120475D01*
X107631282Y-88120481D01*
X107519481Y-88232282D01*
X107519475Y-88232290D01*
X107440426Y-88369209D01*
X107440423Y-88369216D01*
X107399500Y-88521943D01*
X107399500Y-91199902D01*
X107379815Y-91266941D01*
X107363181Y-91287583D01*
X102287584Y-96363181D01*
X102226261Y-96396666D01*
X102199903Y-96399500D01*
X101038973Y-96399500D01*
X100971934Y-96379815D01*
X100926179Y-96327011D01*
X100914973Y-96275504D01*
X100914967Y-96078832D01*
X100914964Y-95982769D01*
X100923780Y-95952744D01*
X100930751Y-95922222D01*
X100933764Y-95918739D01*
X100934647Y-95915733D01*
X100952192Y-95894187D01*
X100963103Y-95883497D01*
X100969336Y-95879900D01*
X101081140Y-95768096D01*
X101081141Y-95768093D01*
X106858506Y-89990728D01*
X106858511Y-89990724D01*
X106868714Y-89980520D01*
X106868716Y-89980520D01*
X106980520Y-89868716D01*
X107035017Y-89774323D01*
X107059577Y-89731785D01*
X107100500Y-89579058D01*
X107100500Y-89420943D01*
X107100500Y-87724500D01*
X107120185Y-87657461D01*
X107172989Y-87611706D01*
X107224500Y-87600500D01*
X108100845Y-87600500D01*
X108122090Y-87606738D01*
G37*
%TD.AperFunction*%
%TA.AperFunction,Conductor*%
G36*
X116847253Y-88620185D02*
G01*
X116893008Y-88672989D01*
X116902952Y-88742147D01*
X116887602Y-88786498D01*
X116872775Y-88812181D01*
X116869361Y-88818094D01*
X116869359Y-88818096D01*
X116840425Y-88868209D01*
X116840424Y-88868210D01*
X116799498Y-89020945D01*
X116798438Y-89029003D01*
X116795059Y-89028558D01*
X116779814Y-89080479D01*
X116727010Y-89126234D01*
X116657852Y-89136178D01*
X116639592Y-89131177D01*
X116639334Y-89132031D01*
X116633510Y-89130264D01*
X116633507Y-89130263D01*
X116633502Y-89130262D01*
X116633499Y-89130261D01*
X116478855Y-89099500D01*
X116478852Y-89099500D01*
X116321168Y-89099500D01*
X116321165Y-89099500D01*
X116166520Y-89130261D01*
X116166508Y-89130264D01*
X116020837Y-89190602D01*
X116020824Y-89190609D01*
X115889721Y-89278210D01*
X115889717Y-89278213D01*
X115778223Y-89389707D01*
X115778220Y-89389711D01*
X115690619Y-89520814D01*
X115690612Y-89520827D01*
X115648109Y-89623442D01*
X115604269Y-89677846D01*
X115537974Y-89699911D01*
X115533548Y-89699990D01*
X109866462Y-89699990D01*
X109799423Y-89680305D01*
X109753668Y-89627501D01*
X109751901Y-89623442D01*
X109709397Y-89520827D01*
X109709390Y-89520814D01*
X109621789Y-89389711D01*
X109621786Y-89389707D01*
X109510292Y-89278213D01*
X109510288Y-89278210D01*
X109379185Y-89190609D01*
X109379172Y-89190602D01*
X109233501Y-89130264D01*
X109233489Y-89130261D01*
X109078845Y-89099500D01*
X109078842Y-89099500D01*
X108921158Y-89099500D01*
X108921151Y-89099500D01*
X108920761Y-89099578D01*
X108920552Y-89099559D01*
X108915093Y-89100097D01*
X108914991Y-89099061D01*
X108851170Y-89093345D01*
X108795996Y-89050478D01*
X108772756Y-88984587D01*
X108788829Y-88916591D01*
X108808890Y-88890286D01*
X109062360Y-88636816D01*
X109123682Y-88603334D01*
X109150040Y-88600500D01*
X116780214Y-88600500D01*
X116847253Y-88620185D01*
G37*
%TD.AperFunction*%
%TA.AperFunction,Conductor*%
G36*
X119355787Y-87609741D02*
G01*
X119387587Y-87617858D01*
X119389151Y-87619538D01*
X119391353Y-87620185D01*
X119412826Y-87644966D01*
X119435198Y-87668995D01*
X119435605Y-87671255D01*
X119437108Y-87672989D01*
X119441775Y-87705452D01*
X119447604Y-87737755D01*
X119446846Y-87740720D01*
X119447052Y-87742147D01*
X119442086Y-87760246D01*
X119442527Y-87760365D01*
X119440424Y-87768213D01*
X119440423Y-87768215D01*
X119399499Y-87920943D01*
X119399499Y-87920945D01*
X119399499Y-88079054D01*
X119399498Y-88079054D01*
X119440423Y-88231785D01*
X119469358Y-88281900D01*
X119469360Y-88281904D01*
X119472157Y-88286749D01*
X119482887Y-88305334D01*
X119499500Y-88367334D01*
X119499500Y-89320234D01*
X119479815Y-89387273D01*
X119478602Y-89389125D01*
X119390609Y-89520814D01*
X119390602Y-89520827D01*
X119348099Y-89623442D01*
X119304259Y-89677846D01*
X119237964Y-89699911D01*
X119233538Y-89699990D01*
X118266462Y-89699990D01*
X118252762Y-89695967D01*
X118238506Y-89696798D01*
X118219903Y-89686318D01*
X118199423Y-89680305D01*
X118188903Y-89668856D01*
X118177631Y-89662506D01*
X118163861Y-89641600D01*
X118156855Y-89633975D01*
X118154129Y-89628823D01*
X118109394Y-89520821D01*
X118049854Y-89431714D01*
X118046881Y-89426093D01*
X118041124Y-89397841D01*
X118032508Y-89370322D01*
X118034235Y-89364025D01*
X118032932Y-89357630D01*
X118043362Y-89330752D01*
X118050992Y-89302942D01*
X118057201Y-89295093D01*
X118058211Y-89292493D01*
X118060684Y-89290691D01*
X118068798Y-89280436D01*
X118379520Y-88969716D01*
X118458577Y-88832784D01*
X118499501Y-88680057D01*
X118499501Y-88521942D01*
X118499501Y-88514347D01*
X118499500Y-88514329D01*
X118499500Y-87920945D01*
X118499500Y-87920943D01*
X118458577Y-87768216D01*
X118458576Y-87768214D01*
X118456473Y-87760365D01*
X118458809Y-87759739D01*
X118452658Y-87702472D01*
X118483939Y-87639996D01*
X118544031Y-87604349D01*
X118574686Y-87600500D01*
X119324314Y-87600500D01*
X119355787Y-87609741D01*
G37*
%TD.AperFunction*%
%TA.AperFunction,Conductor*%
G36*
X143750842Y-88620185D02*
G01*
X143796597Y-88672989D01*
X143806541Y-88742147D01*
X143777516Y-88805703D01*
X143771484Y-88812181D01*
X142944150Y-89639513D01*
X142882827Y-89672998D01*
X142813135Y-89668014D01*
X142757202Y-89626142D01*
X142741910Y-89599288D01*
X142709404Y-89520811D01*
X142709400Y-89520804D01*
X142621799Y-89389701D01*
X142621796Y-89389697D01*
X142510302Y-89278203D01*
X142510298Y-89278200D01*
X142379195Y-89190599D01*
X142379182Y-89190592D01*
X142233511Y-89130254D01*
X142233499Y-89130251D01*
X142078855Y-89099490D01*
X142078852Y-89099490D01*
X141921168Y-89099490D01*
X141921165Y-89099490D01*
X141766520Y-89130251D01*
X141766508Y-89130254D01*
X141647462Y-89179564D01*
X141577992Y-89187033D01*
X141552558Y-89179564D01*
X141433511Y-89130254D01*
X141433499Y-89130251D01*
X141278855Y-89099490D01*
X141278852Y-89099490D01*
X141121168Y-89099490D01*
X141121165Y-89099490D01*
X140966520Y-89130251D01*
X140966508Y-89130254D01*
X140847462Y-89179564D01*
X140777992Y-89187033D01*
X140752558Y-89179564D01*
X140633511Y-89130254D01*
X140633499Y-89130251D01*
X140478855Y-89099490D01*
X140478852Y-89099490D01*
X140321168Y-89099490D01*
X140321165Y-89099490D01*
X140166520Y-89130251D01*
X140166508Y-89130254D01*
X140047457Y-89179567D01*
X139977988Y-89187036D01*
X139952553Y-89179567D01*
X139833501Y-89130254D01*
X139833489Y-89130251D01*
X139678845Y-89099490D01*
X139678842Y-89099490D01*
X139521158Y-89099490D01*
X139521155Y-89099490D01*
X139366510Y-89130251D01*
X139366498Y-89130254D01*
X139247457Y-89179562D01*
X139177987Y-89187031D01*
X139152553Y-89179562D01*
X139033511Y-89130254D01*
X139033499Y-89130251D01*
X138878855Y-89099490D01*
X138878852Y-89099490D01*
X138721168Y-89099490D01*
X138721165Y-89099490D01*
X138566520Y-89130251D01*
X138566508Y-89130254D01*
X138447462Y-89179564D01*
X138377992Y-89187033D01*
X138352558Y-89179564D01*
X138233511Y-89130254D01*
X138233499Y-89130251D01*
X138078855Y-89099490D01*
X138078852Y-89099490D01*
X137921168Y-89099490D01*
X137921165Y-89099490D01*
X137766520Y-89130251D01*
X137766508Y-89130254D01*
X137647462Y-89179564D01*
X137577992Y-89187033D01*
X137552558Y-89179564D01*
X137433511Y-89130254D01*
X137433499Y-89130251D01*
X137278855Y-89099490D01*
X137278852Y-89099490D01*
X137121168Y-89099490D01*
X137121165Y-89099490D01*
X136966520Y-89130251D01*
X136966508Y-89130254D01*
X136847457Y-89179567D01*
X136777988Y-89187036D01*
X136752553Y-89179567D01*
X136633501Y-89130254D01*
X136633489Y-89130251D01*
X136478845Y-89099490D01*
X136478842Y-89099490D01*
X136321158Y-89099490D01*
X136321155Y-89099490D01*
X136166510Y-89130251D01*
X136166502Y-89130253D01*
X136141986Y-89140408D01*
X136047444Y-89179568D01*
X135977976Y-89187037D01*
X135952542Y-89179568D01*
X135833507Y-89130263D01*
X135833499Y-89130261D01*
X135678855Y-89099500D01*
X135678852Y-89099500D01*
X135521168Y-89099500D01*
X135521165Y-89099500D01*
X135366520Y-89130261D01*
X135366508Y-89130264D01*
X135247462Y-89179574D01*
X135177992Y-89187043D01*
X135152558Y-89179574D01*
X135033511Y-89130264D01*
X135033499Y-89130261D01*
X134878855Y-89099500D01*
X134878852Y-89099500D01*
X134721168Y-89099500D01*
X134721165Y-89099500D01*
X134566520Y-89130261D01*
X134566508Y-89130264D01*
X134447462Y-89179574D01*
X134377992Y-89187043D01*
X134352558Y-89179574D01*
X134233511Y-89130264D01*
X134233499Y-89130261D01*
X134078855Y-89099500D01*
X134078852Y-89099500D01*
X133921168Y-89099500D01*
X133921165Y-89099500D01*
X133766520Y-89130261D01*
X133766508Y-89130264D01*
X133647462Y-89179574D01*
X133577992Y-89187043D01*
X133552558Y-89179574D01*
X133433511Y-89130264D01*
X133433499Y-89130261D01*
X133278855Y-89099500D01*
X133278852Y-89099500D01*
X133121168Y-89099500D01*
X133121165Y-89099500D01*
X132966520Y-89130261D01*
X132966508Y-89130264D01*
X132820837Y-89190602D01*
X132820824Y-89190609D01*
X132689721Y-89278210D01*
X132689717Y-89278213D01*
X132578223Y-89389707D01*
X132578220Y-89389711D01*
X132490619Y-89520814D01*
X132490612Y-89520827D01*
X132448109Y-89623442D01*
X132404269Y-89677846D01*
X132337974Y-89699911D01*
X132333548Y-89699990D01*
X131666462Y-89699990D01*
X131599423Y-89680305D01*
X131553668Y-89627501D01*
X131551901Y-89623442D01*
X131509397Y-89520827D01*
X131509390Y-89520814D01*
X131421789Y-89389711D01*
X131421786Y-89389707D01*
X131310292Y-89278213D01*
X131310288Y-89278210D01*
X131179185Y-89190609D01*
X131179172Y-89190602D01*
X131033501Y-89130264D01*
X131033489Y-89130261D01*
X130878845Y-89099500D01*
X130878842Y-89099500D01*
X130721158Y-89099500D01*
X130721155Y-89099500D01*
X130566510Y-89130261D01*
X130566498Y-89130264D01*
X130447452Y-89179574D01*
X130377982Y-89187043D01*
X130352548Y-89179574D01*
X130233501Y-89130264D01*
X130233489Y-89130261D01*
X130078845Y-89099500D01*
X130078842Y-89099500D01*
X129921158Y-89099500D01*
X129921155Y-89099500D01*
X129766510Y-89130261D01*
X129766502Y-89130263D01*
X129696789Y-89159139D01*
X129647469Y-89179568D01*
X129578000Y-89187037D01*
X129552566Y-89179568D01*
X129433507Y-89130253D01*
X129433499Y-89130251D01*
X129278855Y-89099490D01*
X129278852Y-89099490D01*
X129121168Y-89099490D01*
X129121165Y-89099490D01*
X128966520Y-89130251D01*
X128966508Y-89130254D01*
X128847457Y-89179567D01*
X128777988Y-89187036D01*
X128752553Y-89179567D01*
X128633501Y-89130254D01*
X128633489Y-89130251D01*
X128478845Y-89099490D01*
X128478842Y-89099490D01*
X128321158Y-89099490D01*
X128321155Y-89099490D01*
X128166510Y-89130251D01*
X128166498Y-89130254D01*
X128047452Y-89179564D01*
X127977982Y-89187033D01*
X127952548Y-89179564D01*
X127833501Y-89130254D01*
X127833489Y-89130251D01*
X127678845Y-89099490D01*
X127678842Y-89099490D01*
X127521158Y-89099490D01*
X127521155Y-89099490D01*
X127366510Y-89130251D01*
X127366498Y-89130254D01*
X127247452Y-89179564D01*
X127177982Y-89187033D01*
X127152548Y-89179564D01*
X127033501Y-89130254D01*
X127033489Y-89130251D01*
X126878845Y-89099490D01*
X126878842Y-89099490D01*
X126721158Y-89099490D01*
X126721155Y-89099490D01*
X126566510Y-89130251D01*
X126566498Y-89130254D01*
X126447452Y-89179564D01*
X126377982Y-89187033D01*
X126352548Y-89179564D01*
X126233501Y-89130254D01*
X126233489Y-89130251D01*
X126078845Y-89099490D01*
X126078842Y-89099490D01*
X125921158Y-89099490D01*
X125921155Y-89099490D01*
X125766510Y-89130251D01*
X125766498Y-89130254D01*
X125647440Y-89179569D01*
X125577970Y-89187038D01*
X125552536Y-89179569D01*
X125433501Y-89130264D01*
X125433489Y-89130261D01*
X125278845Y-89099500D01*
X125278842Y-89099500D01*
X125121158Y-89099500D01*
X125121155Y-89099500D01*
X124966510Y-89130261D01*
X124966498Y-89130264D01*
X124847452Y-89179574D01*
X124777982Y-89187043D01*
X124752548Y-89179574D01*
X124633501Y-89130264D01*
X124633489Y-89130261D01*
X124478845Y-89099500D01*
X124478842Y-89099500D01*
X124321158Y-89099500D01*
X124321155Y-89099500D01*
X124166510Y-89130261D01*
X124166498Y-89130264D01*
X124020827Y-89190602D01*
X124020814Y-89190609D01*
X123889711Y-89278210D01*
X123889707Y-89278213D01*
X123778213Y-89389707D01*
X123778210Y-89389711D01*
X123690609Y-89520814D01*
X123690602Y-89520827D01*
X123648099Y-89623442D01*
X123604259Y-89677846D01*
X123537964Y-89699911D01*
X123533538Y-89699990D01*
X120966462Y-89699990D01*
X120899423Y-89680305D01*
X120853668Y-89627501D01*
X120851901Y-89623442D01*
X120809397Y-89520827D01*
X120809390Y-89520814D01*
X120721398Y-89389125D01*
X120700520Y-89322447D01*
X120700500Y-89320234D01*
X120700500Y-88724500D01*
X120720185Y-88657461D01*
X120772989Y-88611706D01*
X120824500Y-88600500D01*
X143683803Y-88600500D01*
X143750842Y-88620185D01*
G37*
%TD.AperFunction*%
%TD*%
M02*
