%TF.GenerationSoftware,KiCad,Pcbnew,9.0.6*%
%TF.CreationDate,2025-11-09T20:54:40-05:00*%
%TF.ProjectId,TTEFI,54544546-492e-46b6-9963-61645f706362,rev?*%
%TF.SameCoordinates,Original*%
%TF.FileFunction,Legend,Bot*%
%TF.FilePolarity,Positive*%
%FSLAX46Y46*%
G04 Gerber Fmt 4.6, Leading zero omitted, Abs format (unit mm)*
G04 Created by KiCad (PCBNEW 9.0.6) date 2025-11-09 20:54:40*
%MOMM*%
%LPD*%
G01*
G04 APERTURE LIST*
%ADD10C,0.200000*%
G04 APERTURE END LIST*
D10*
%TO.C,M2*%
X108800000Y-89700000D02*
X142600010Y-89700000D01*
X108800000Y-125499990D02*
X108800000Y-89700000D01*
X108800000Y-125499990D02*
X142600010Y-125499990D01*
X142600010Y-125499990D02*
X142600010Y-89700000D01*
%TO.C,M1*%
X144050000Y-96299982D02*
X144050000Y-93099979D01*
X144050000Y-108399982D02*
X144050000Y-97999980D01*
X144050000Y-110299982D02*
X144050000Y-109999982D01*
X144050000Y-110299982D02*
X159450000Y-110299982D01*
X145550000Y-89699984D02*
X160849999Y-89699982D01*
X160849997Y-96399980D02*
X160849997Y-91599980D01*
X160849997Y-102599982D02*
X160849997Y-99899982D01*
X160849997Y-105299980D02*
X160849997Y-104199977D01*
X160849997Y-108849982D02*
X160850002Y-107299982D01*
X160849999Y-89999980D02*
X160849999Y-89699982D01*
%TO.C,M3*%
X92750053Y-94863318D02*
X93111701Y-94501670D01*
X92750053Y-107924999D02*
X92750053Y-94863318D01*
X92750053Y-107924999D02*
X93000053Y-108174998D01*
X93000053Y-108174998D02*
X100350434Y-108174998D01*
X93111701Y-94501670D02*
X98850051Y-94501670D01*
X98850051Y-95100379D02*
X98850051Y-94501670D01*
X98850051Y-95100379D02*
X99600052Y-95850380D01*
X99600052Y-95850380D02*
X100600053Y-95850380D01*
X100350434Y-108174998D02*
X100600053Y-107925380D01*
X100600053Y-107925380D02*
X100600053Y-95850380D01*
%TD*%
M02*
